<?xml version="1.0" encoding="utf-8"?>
<!-- Generator: Adobe Illustrator 19.1.1, SVG Export Plug-In . SVG Version: 6.00 Build 0)  -->
<svg version="1.1" xmlns="http://www.w3.org/2000/svg" xmlns:xlink="http://www.w3.org/1999/xlink" x="0px" y="0px"
	 viewBox="0 0 491 566.9" style="enable-background:new 0 0 491 566.9;" xml:space="preserve">
<style type="text/css">
	.st0{fill:#35251F;}
	.st1{fill:#D8B8A0;}
	.st2{fill:#FFDDB0;}
	.st3{font-family:'NexaBold';}
	.st4{font-size:70.808px;}
	.st5{font-size:70.8079px;}
	.st6{font-family:'Helvetica';}
	.st7{font-size:11.8181px;}
</style>
<g id="Background">
	<polygon class="st0" points="245.5,547.6 16.8,415.5 16.8,151.4 245.5,19.4 474.2,151.4 474.2,415.5 	"/>
</g>
<g id="Wooden_box">
	<g id="Face_up_1_">
		<g id="Clair">
		</g>
		<g id="Shadow">
		</g>
		<path class="st1" d="M382.6,143.9c4.6,3.1,9.7,4.9,13.6,9.6c1.8,0.1,3.2-1.1,4.9-2.5c-0.9-0.8-1.7-1.5-2.5-2
			c-12.1-7.4-24-15.2-36.3-22.1c-14.2-8-28-17-42.2-25c-8.9-5-17.8-10-26.6-15.3C281,78.9,268.1,72,255.1,65.4
			c-1.4-0.7-3.8-3.7-4.8-0.3c-0.9,2.9,2.2,3,3.6,3.9c3.9,2.4,7.9,4.6,11.4,7.9c-5.2-1.1-9.9-4.7-15.7-6.1c2.7,3.4,5.3,4.9,8.1,6.3
			c10.9,5.5,21,12.9,31.7,18.9c0.9,0.5,2.5,0.6,2,2.8c-2.2-1.1-4.4-2-6.5-3.2c-10.5-5.7-20.3-13.2-31.1-17.9c-1.4,1.1-2.7-0.7-4-0.2
			c0,2.8,1.9,3.2,3.3,4c17.9,10.9,35.8,21.8,53.7,32.5c16.2,9.6,32.6,19.1,48.9,28.5c10.1,5.8,20.3,11.2,30.5,16.7
			c1.1,0.6,2.4,1.9,3.2-0.7c0.7-2.4-1-2.4-1.8-3c-3.2-2.3-6.7-3.7-9.5-6.8c-0.6-0.2-1.2-1-0.9-1.4c0.6-1,1.1,0.1,1.5,0.5
			c3.9,2.4,7.7,4.8,11.6,7.1c2,1.2,4,1.5,5.7-0.9c-3.2-0.3-5.5-3.2-8.2-4.8c-3.4-2.1-6.8-4.4-10.9-7.2
			C379.7,141.3,381.2,142.9,382.6,143.9z M292.5,99.2c-0.5,0.4-0.7,0-1-0.4c0.4-0.5,0.7-0.3,1,0.1C292.6,98.9,292.6,99.2,292.5,99.2
			z M296.7,92.7c8.4,5.2,16.8,10.5,25.2,15.7c-0.2,0.5-0.4,0.9-0.5,1.4c-9.4-2.7-16.3-11.9-25.5-15.1
			C296.2,94,296.4,93.3,296.7,92.7z M323.6,120.5c-7.7-5.3-16.1-9.4-22.8-16.8c0.2-0.4,0.5-0.8,0.7-1.2c7.6,5.6,15.1,11.2,22.7,16.8
			C324,119.7,323.8,120.1,323.6,120.5z"/>
		<path class="st1" d="M223.9,103.1c-0.2,0.3-0.5,0.5-0.7,0.8c-4.2,2.5-8.5,5-12.7,7.6c-0.7,0.4-2.3,1.1-0.8,2.3
			c1.4,1.2,3,3,5.2,1.7c0.9-0.6,2.1-2,3.4-0.6c-0.8,1-2.4,0.4-2.7,2.5c2.9,1.6,5.9,3,8.7,4.9c3.4,2.3,6.8,3.1,10.3,0.5
			c3.6-2.8,7.2-5.4,11.4-6.3c0.4-0.8,0.9-1.1,1.6-0.7c-0.2,0.8-0.9,0.8-1.4,0.9c-3.6,2.4-7.1,4.7-10.7,7.1c-0.7,0.9-2.1,0.8-2.2,2.5
			c3.1,1.8,6.2,3.5,9.3,5.3c3.7,2.1,7.3,2.3,11.1-0.2c9.5-6,19.2-11.7,28.8-17.5c1.4-0.2,2.1-1.8,3.3-2.5c0.6-0.4,2-0.1,1.2-2.1
			c-0.7-1.7-1.1-3.3-3-2.5c0.2,0.1,0.4,0.2,0.5,0.3c-0.1,0.1-0.2,0.2-0.2,0.3c-0.1-0.2-0.3-0.4-0.4-0.5c-0.4,0.1-1.2,0.4-1.2,0.3
			c-1.7-3.9-4.6-3.4-7.5-3.7c-1.4-0.1-2.5-2-4.1-2.1c-1.1-1.4-2.3-2.5-3.9-3c-1.3-0.4-2.8-1-1.9-3.5c-2.1,0.3-4.1,2.5-6.2,0.4
			c-1,0.2-1.8-1.3-2.9-0.6c1.9,3,4.4,5.1,7.1,6.4c-2.7-1.3-5.2-3.3-7.1-6.4c-4.7-0.3-8.6,2.5-12.6,4.9c-4,2.3-7.8,5.4-12.2,6.5
			c5.4-5.4,12-7.7,18-11.7c1.4-0.9,3-1.6,4.6-2.6c-1.7-2.2-3.5-3.3-5.9-2.7c0.5,2,2.6,1,2.9,3c-0.1,0.1-0.2,0.3-0.2,0.3
			c-4.5-3.4-8.2,1.4-12.3,2l0-0.1c-3.2,2.5-6.4,4.9-10,6.3l0-0.1C226.9,101.7,225.6,103.1,223.9,103.1z M265,112
			c0.5-0.3,0.9-0.7,1.4-1c0.5-0.3,0.9-0.6,1.4-1c0.8-0.7,1.7-1.4,2.5-2.1c1.9,0.3,3.4-4.2,5.6-1c-2.8,0.5-5,3.1-7.7,3.8
			c-0.5,0.3-1,0.6-1.4,0.9c-0.3,0.8-0.9,0.8-1.4,0.9c-1.3,1-2.6,2.3-4.3,1.7C262.1,112.8,263.6,112.5,265,112z M260.9,114.1
			c-0.3,1.5-1,1-1.7,0.6C259.7,113.8,260.3,114.2,260.9,114.1z M257.2,109.6c-3,2.7-6.2,4.9-9.8,6.2
			C250.1,112.2,253.9,111.5,257.2,109.6z M231.1,106L231.1,106c-3,2.9-6.3,5-10,6.3c0.1,0.7-0.3,0.8-0.7,1c-0.8-1.5,0.1-1,0.7-1
			C224,109.1,227.3,106.9,231.1,106z"/>
		<path class="st1" d="M169.9,136.7C169.9,136.7,169.9,136.6,169.9,136.7c-0.3,1-1,0.9-1.6,0.9l-0.2,0.1l-0.1-0.2
			c-1.8,1.8-3.9,3-6.1,3.6l-0.3,0.1c-3.7,2.5-7.5,5-11.7,7.7c4.7,2.6,8.9,5,13.2,7.4c-0.7,0.8-1.3,1.4-1.9,2.1
			c-0.2,0.2-0.5,0.4-0.7,0.7c0,0,0-0.1,0-0.1c-0.5,0.2-1.2,0-1.4,0.9l0,0c-8.6,5-17.2,9.9-26,15.9c1.8,0.5,2.7,1.6,4,1.3
			c6.4-3.6,12.9-7.2,19.3-10.8c0.7-0.6,1.4-1.2,2-1.8c1,0.3,1.8-0.4,2.7-0.9c20.4-12.1,40.8-24.1,61.4-36.3
			c-3.3-2.3-6.3-4.7-9.9-5.1c-2.3-3.1-5.8-2.7-8.5-4.5c-3.2-3.5-5.7-0.2-8.5,1.2c-0.3,0.3-0.5,0.6-0.8,0.8c-3,2.5-7,3.1-9.4,7v0l0,0
			c0,0,0,0,0,0c-1.1,0-2,0.6-3,1.1c-3.9,2.2-7.9,4.2-11.8,6.3c-0.5,0-0.9,0-1.4,0c0.2,0.5,0.5,1,0.7,1.6c1,0.1,1.9,0.1,2.9,0.2
			c0.9-1.6,2.2-1.9,3.5-1.8c0.2-1.1,0.8-1,1.4-0.9c0.2-1.1,0.8-1,1.4-0.9c-0.1-1.2,0.9-1.3,1.4-1.8c0.2,1.5-0.3,2.1-1.4,1.9
			c-0.2,1-0.8,1-1.4,0.9c-0.2,1-0.8,0.9-1.4,0.9c-1,1.3-2.1,1.9-3.5,1.8C172,137.1,170.8,136.4,169.9,136.7z M212.6,122.2
			c-0.2,2.1-1.5,2.3-2.8,2.7C210,122.8,211.8,123.4,212.6,122.2z M209.6,124.9c-2,1.5-3.7,3.5-6.2,3.5
			C205.2,126.6,207,124.8,209.6,124.9z M201.7,129.2c0.3-0.8,0.9-0.8,1.5-0.7c0,1-0.7,1-1.2,1.2c-3.1,2.4-6.3,4.4-9.7,5.7
			C195.3,132.8,198.3,130.6,201.7,129.2z M197.6,121.3c0.3-1.7,1.4-0.8,2.2-1.1C199.4,121.6,198.5,121.6,197.6,121.3
			c-2.7,3-6.3,3.7-9.3,5.9C190.6,123.1,194,122,197.6,121.3z M187.1,128.2c-0.1,0-0.1,0-0.2,0C186.9,128.1,187,128.2,187.1,128.2z
			 M189.4,137.2c-1.6,1.5-2.5,2.4-3.8,2C186.3,138.2,187.4,137.7,189.4,137.2z M185.5,139.3c0,0.2-0.1,0.4-0.1,0.6
			c-0.1-0.1-0.3-0.2-0.4-0.3C185.1,139.5,185.3,139.4,185.5,139.3z M183.7,140.4c0.1,0,0.1,0.2,0.2,0.3c-0.1,0.1-0.2,0.2-0.2,0.2
			c-0.1,0-0.1-0.2-0.2-0.3C183.6,140.5,183.6,140.4,183.7,140.4z M181.9,141.8c-0.1,0-0.2-0.1-0.2-0.2c0.2-0.1,0.4-0.2,0.6-0.2
			c0.1,0,0.2,0.2,0.2,0.3C182.3,141.6,182.1,141.7,181.9,141.8z"/>
		<path class="st1" d="M281.9,75.9c29.5,16.2,58.2,34.8,87.7,51.1c11.5,6.3,22.8,13.1,34.3,19.6c3.7,2.1,6.4,1.1,8.3-2.7
			c-4.2-2-8.1-4.4-12-7.1c3.9,2.7,7.8,5.2,12,7.1c0.6-0.1,1.2-0.2,1.8-0.4c5.1-0.3,8.8-4.9,13.4-6.9c0,0,0,0,0,0
			c1.6-0.5,3.2-0.7,4.6-2.6c-1.4-0.9-2.5-1.7-3.7-2.4c-11.4-6.5-22.8-12.9-34.2-19.4c-25-14.3-50-28.8-75-43.1
			c-14-8-28.1-16-42.2-23.9c-1.3-0.7-2.6-2-4-1.2c-7.7,4.1-15.5,7.8-22.9,13.6C260.9,63.8,271.3,70.1,281.9,75.9z M426.9,135.5
			c0.5,0.1,0.8,0.3,0.6,1c-0.3-0.1-0.7-0.2-1-0.3c-2.4-1.1-4.8-2.1-7.2-3.2C422.1,132.1,424.5,133.9,426.9,135.5z M414.7,129.5
			c0.2,0,0.3,0,0.5-0.1C415,129.4,414.8,129.5,414.7,129.5z M409.7,126.3c0,0-0.1-0.2-0.2-0.3C409.6,126.2,409.7,126.3,409.7,126.3z
			 M404.9,122.8C404.9,122.8,404.9,122.8,404.9,122.8C404.9,122.8,404.9,122.8,404.9,122.8c-0.9-0.7-1.8-1.3-2.7-1.8
			C403.1,121.4,404,122.1,404.9,122.8z M391,115.2c0,0.1,0,0.3-0.1,0.5C391,115.4,391.1,115.3,391,115.2z M412.7,142
			c0.3,0.2,0.5,0.5,0.7,0.8C413.3,142.5,413,142.2,412.7,142c-9.8-7.3-19.4-14.8-29.3-22C393.3,127.2,403,134.7,412.7,142z
			 M373.9,105.1c0.1,0.1,0.4,0.1,0.5,0.2C374.3,105.2,374.1,105.2,373.9,105.1c-0.2,0.2-0.3,0.3-0.5,0.5
			C373.6,105.4,373.8,105.2,373.9,105.1z M285.6,72.1c-0.1,0-0.2-0.1-0.2-0.1C285.5,72,285.5,72,285.6,72.1c0.5,0.4,1,0.8,1.5,1.2
			C286.6,72.9,286.1,72.5,285.6,72.1z M307.2,83.5c-0.1,0.2-0.2,0.3-0.3,0.5C307,83.8,307.1,83.7,307.2,83.5
			c0.2,0.1,0.4,0.2,0.6,0.3C307.6,83.7,307.4,83.6,307.2,83.5z M359.5,113.8c0.1-0.2,0.1-0.3,0.1-0.4
			C359.6,113.4,359.6,113.6,359.5,113.8z M359.3,97.6c2,1.5,4,2.9,6,4.1C363.3,100.5,361.3,99.1,359.3,97.6
			c-0.3-0.1-0.6-0.3-0.8-0.4C358.8,97.3,359,97.4,359.3,97.6z M357.8,112.1c0,0,0.1,0.1,0.1,0.1
			C357.9,112.2,357.8,112.2,357.8,112.1c-0.2-0.4-0.4-0.7-0.7-0.8C357.4,111.4,357.7,111.7,357.8,112.1z M355.1,110.7
			c0.1,0,0.2,0,0.3,0C355.3,110.7,355.2,110.7,355.1,110.7c0,0.1-0.1,0.2-0.1,0.2C355,110.8,355.1,110.7,355.1,110.7z M355.2,111.3
			L355.2,111.3c-0.1-0.1-0.2-0.2-0.2-0.3C355,111.1,355.1,111.2,355.2,111.3z M353.9,94.6c0.3,0.3,0.6,0.5,0.9,0.8
			C354.5,95.1,354.2,94.9,353.9,94.6c-0.6-0.3-1.3-0.5-1.8-0.9C352.6,94.1,353.3,94.4,353.9,94.6z M348.3,90.1c0,0.1,0,0.2,0,0.2
			C348.3,90.3,348.3,90.2,348.3,90.1c-0.1,0-0.2-0.2-0.2-0.1C348.1,89.9,348.2,90,348.3,90.1z M342.4,94c0,0.1,0.1,0.2,0.2,0.3
			C342.5,94.2,342.4,94.1,342.4,94z M328.6,87.8L328.6,87.8c-3.7-2.6-7.5-5-11.3-7.3C321.2,82.8,324.9,85.3,328.6,87.8z M314.9,87.5
			c-0.6-0.3-1.1-0.6-1.7-0.9c-0.6-0.5-1.1-0.9-1.8-1.2c0.6,0.3,1.2,0.7,1.8,1.2C313.8,86.9,314.4,87.2,314.9,87.5z M298.2,62.3
			c0.5,0.3,1,0.6,1.5,0.9c0.8,0.6,1.5,1.7,2.5,1.4c-1.1,0.3-1.7-0.7-2.5-1.4C299.3,62.9,298.7,62.6,298.2,62.3
			c-0.2-0.1-0.4-0.3-0.6-0.4C297.9,62.1,298,62.2,298.2,62.3z M311.6,77.1c-4.6-2.7-9.3-5.3-14-7.8C302.3,71.8,307,74.3,311.6,77.1z
			 M283.3,61.9c3.4,2.4,6.9,4.7,10.5,6.9C290.2,66.6,286.7,64.3,283.3,61.9z M291.8,58.8c0.6,0.5,1.2,1,1.9,1.3
			C293,59.8,292.4,59.3,291.8,58.8c-0.2-0.1-0.4-0.3-0.6-0.4C291.4,58.5,291.6,58.6,291.8,58.8z M281.6,69.6L281.6,69.6
			c-3.4-1.9-6.8-3.6-9.9-6.2c0.2-0.3,0.4-0.5,0.6-0.8c3.3,1.9,6.7,3.5,9.7,6.2C281.9,69.2,281.7,69.4,281.6,69.6z M279.6,50.9
			c-0.1,0.3-0.2,0.6-0.2,0.9c-2.7-1.5-5.5-3-8.2-4.5C274.5,46.9,277,49.2,279.6,50.9z"/>
		<path class="st1" d="M93.7,138.1c4-3,8.2-5.5,12.4-7.9C101.9,132.6,97.7,135,93.7,138.1c0,0.7,0,1.4,0,2.2c-3.1,2.4-6.9,3.2-9.2,7
			c3.8,3.4,7.1,0,10.1-1.8c30.7-18.8,61.9-36.5,92.7-55c18.6-11.1,37.2-22.3,55.9-33.5c-2.3-3.3-5.8-3.1-8.4-5.2
			c-4.3-3.5-9.1-5.2-13.6-7.9c-1.2-0.7-2.1,0-3.2,0.6c-24.1,13-47.6,27.4-71.5,41c-23.3,13.3-46.6,27-69.8,40.5
			c-4.8,2.8-9.6,5.6-14.8,8.7c7,4,13.4,7.7,19.8,11.3C85.3,142.5,89.7,140.6,93.7,138.1z M161.1,100.6c2.8-1.5,5.6-2.9,8.3-4.5
			C166.7,97.7,163.9,99.2,161.1,100.6z M220.8,50.5L220.8,50.5c-1.6,0.7-3.2,1.5-4.7,2.3C217.6,52,219.2,51.3,220.8,50.5z
			 M153.3,104.5c-0.7,0.6-1.2,1-1.7,1.4C152.1,105.5,152.6,105.1,153.3,104.5z M124.4,107.5c2.8-1.5,5.6-3,8.4-4.6
			C130,104.5,127.2,106,124.4,107.5c-14,7.5-28.2,14.7-42.1,22.8C96.1,122.2,110.3,115,124.4,107.5z"/>
		<path class="st1" d="M302.3,250.9c19.3-11.6,38.6-23.2,58-34.8c10.3-6.2,20.6-12.1,31-18.2c14.3-8.5,28.7-17,43.1-25.6
			c-2.2-2.1-4.5-3-6.8-4c-0.3-0.1-0.6-0.2-0.9-0.3c-0.3-1.3-1.2-0.9-1.9-1c-2.9-2.2-5.8-4.8-9.4-5.1c0-0.6-0.2-0.9-0.7-1
			c-2.5-1.6-5.1-3-7.5-4.7c-1.7-1.2-3.2-1.1-5,0c-15.8,9.3-31.7,18.5-47.5,27.8c-17.8,10.6-35.6,21.2-53.3,32
			c-15.8,9.5-31.5,19.2-48,29.4c4.9,2.7,9,4.9,13.2,7.2c2.4-1.9,5-3.3,7.8-4.2c-2,2.3-4.4,3.3-6.9,4.4c2.3,3,5.7,3.5,8.5,5.4
			c1.2-1.4,2.7-1.5,4.1-2.1h0c0.5,0.1,1,0.2,1.6,0.3c0.3-1.2,1.1-0.9,1.8-0.9c-0.4,0.9-1,1.3-1.8,1c-0.2,2.3-2.9,1.2-3.1,3.5
			c2.5,2.3,5,2,7.6,0.5C291.6,257.2,296.9,254.1,302.3,250.9z M426.1,168c-0.6,0-1.2,0.2-1.5-0.8C424.9,168.2,425.5,168,426.1,168z
			 M424.6,167.1c-0.5,0.2-1.1,0.4-1.6,0.6C423.6,167.5,424.1,167.4,424.6,167.1z M425.9,169.8c-1.3,1-2.6,2-4,2.8
			C423.3,171.8,424.6,170.9,425.9,169.8z M313.4,225.5c0.1,0.1,0.2,0.2,0.3,0.3h0C313.6,225.7,313.5,225.6,313.4,225.5z
			 M323.6,219.4c-0.2,0.2-0.4,0.5-0.7,0.7C323.1,219.9,323.3,219.7,323.6,219.4L323.6,219.4z M325.9,218.4c0.1-0.1,0.2-0.3,0.2-0.5
			h0C326,218.1,325.9,218.3,325.9,218.4z M327.7,217.5c0.1,0,0.3,0,0.3-0.1C327.9,217.5,327.8,217.5,327.7,217.5z M330.3,215.2
			L330.3,215.2c0,0.1,0.1,0.1,0.1,0.2C330.4,215.3,330.4,215.2,330.3,215.2z M334.3,213.2c0,0,0-0.1-0.1-0.1L334.3,213.2
			c-0.2,0.4-0.4,0.6-0.7,0.7C333.9,213.8,334.1,213.6,334.3,213.2z M334.1,212.9L334.1,212.9l0.1,0.1
			C334.1,213,334.1,212.9,334.1,212.9z M338.8,210.8c-0.3,0.2-0.5,0.3-0.8,0.5C338.2,211.1,338.5,211,338.8,210.8
			c-0.1-0.2-0.3-0.4-0.4-0.6h0C338.5,210.4,338.6,210.6,338.8,210.8c0.3-0.2,0.9-0.2,1-0.6C339.7,210.6,339,210.6,338.8,210.8z
			 M339.3,209.4c0.1,0,0.3,0.1,0.4,0.3C339.6,209.5,339.4,209.4,339.3,209.4z M342.5,208.4c0.1-0.1,0.1-0.3,0.1-0.4
			C342.6,208.1,342.6,208.3,342.5,208.4z M343.5,207.2c0.5-0.7,1-1.2,1.5-1.6C344.5,206.1,344,206.6,343.5,207.2z M398.1,164.3
			c0,0.3-0.1,0.5-0.2,0.7C398,164.9,398.1,164.6,398.1,164.3z M396.2,165.1c0,0,0,0.1,0,0.2C396.2,165.2,396.2,165.1,396.2,165.1z
			 M395.3,165.4L395.3,165.4c-0.4,0.2-0.8,0.3-1.2,0.5C394.5,165.8,394.9,165.6,395.3,165.4z M389.7,167.7c-0.9,0.4-1.7,0.8-2.5,1.4
			C388,168.5,388.9,168.1,389.7,167.7z M355.9,187.9c9.2-5.5,18.4-11.1,27.6-16.6c0.6-0.4,1.3-0.4,2-0.6c-0.1-0.7,0.4-0.7,0.8-0.8
			c-0.2,0.3-0.5,0.6-0.7,0.8c0,0.4,0.1,0.7,0.1,1.1c-13.9,8.2-27.9,16.4-41.8,24.6c-0.5,0.3-1.1,0.3-1.6,0.5
			C346.2,192.6,351.2,190.7,355.9,187.9z M341.6,209.3c0.1-0.1,0.3-0.3,0.5-0.5C341.9,209.1,341.7,209.2,341.6,209.3z M342,197
			c-2.7,2.6-5.6,4.5-9,5.1C335.9,200.2,338.6,197.6,342,197z M332.6,202.3c-1.2,2.5-3.2,3.1-5.3,3.5
			C328.8,204.1,330.7,203.3,332.6,202.3z M327.1,205.9c0,1.3-0.8,0.7-1.3,0.8C325.9,205.8,326.5,206,327.1,205.9z M325.6,206.9
			c-0.6,1.2-1.6,1.6-2.7,1.8C323.4,206.9,324.4,206.8,325.6,206.9z M318.1,211.2c1-1.3,2.1-1.6,3.1-2c0.5-0.5,1-1,1.7-0.5
			c-0.2,1.1-0.9,0.8-1.4,0.8c-0.8,1.3-1.9,1.8-3.5,1.9c-2,2-3.6,2.6-5.9,3.6C313.8,212.6,315.5,212,318.1,211.2z M308.4,228.1
			c0.1,0.2,0.3,0.4,0.4,0.6C308.6,228.5,308.5,228.3,308.4,228.1L308.4,228.1z M308.3,229.2c-0.1,0.1-0.2,0.2-0.4,0.2
			C308,229.4,308.2,229.3,308.3,229.2z M307.7,229.4c-0.1,0-0.2-0.1-0.3-0.3C307.5,229.2,307.6,229.3,307.7,229.4z M304.8,231.2
			c-0.1-0.1-0.3-0.2-0.4-0.5C304.5,231,304.6,231.2,304.8,231.2z M303,231.5c-0.4,0-0.8,0.1-1.1,0.1
			C302.3,231.6,302.6,231.5,303,231.5z M301.1,231.9c-0.6,0.3-1,0.8-2,1.9h0C300,232.7,300.5,232.2,301.1,231.9z M297.7,234.9
			c-0.2-0.1-0.3-0.2-0.4-0.3C297.4,234.7,297.5,234.8,297.7,234.9z M295.7,236L295.7,236c-0.8,0.6-1.6,1.2-2.4,1.8
			C294.1,237.2,294.9,236.6,295.7,236z M275.3,248L275.3,248c2.4-1.9,4.9-3.6,7.4-5.2C280.2,244.4,277.7,246.2,275.3,248z
			 M283.2,244.2c1.7-1,3.4-2,5.1-3C286.6,242.3,284.9,243.3,283.2,244.2z"/>
		<path class="st1" d="M409.7,152.4c2.6,1.4,4.8,2.6,7,3.8c6.6,3.7,13.2,7.5,19.7,11.2c0.8,0.5,1.4,0.7,2.3,0.3
			c7.1-3.8,14.1-7.7,20.7-12.6c0,0,0,0,0,0c2-1.3,4.3-1.7,6.3-4.1c-1.5,0-2.5-0.2-3.5-0.8c-7-4.1-14-7.9-21-12.1
			c-2.5-1.5-4.8-1.9-7.3-0.5c-4.3,2.4-8.6,4.8-12.8,7.2C417.4,147.2,413.4,149.1,409.7,152.4z"/>
		<path class="st1" d="M240.8,49.9c4.6,2.9,9,3.4,13.6-0.4c3.6-3,7.7-5,11.5-7.5c-0.7-0.6-1.5-1.2-2.3-1.7c0.8,0.5,1.5,1.1,2.3,1.7
			c1.4,0,2.6-0.5,3.7-2c-4.5-2.5-9-4.3-13-7.2c-6.4-4.8-12.4-5.7-19.1-0.8c-4.3,3.2-9.1,5.4-14.3,8.4c2,0.7,3.1,1.1,4.2,1.5
			C231.9,44.6,236.4,47.1,240.8,49.9z"/>
		<path class="st1" d="M132.3,158.8c-0.8,0.4-1.5,0.8-2.3,1.2c-3.3,2.8-6.4,6.1-10.6,6.3c-0.2,0-0.5,0.1-0.7,0.1c0,0,0.1,0,0.1,0
			c6.3,6.1,12.4,8.2,19.8,1.7c5.2-4.6,11.6-6.9,17.4-11.3c-2.1-1.1-3.9-1.7-5.5-2.9c-3.7-2.6-7.1-2.3-10.6,0.5
			c-2.1,1.7-4.3,3.6-7,3.8l0.1-0.1C132.7,158.4,132.5,158.6,132.3,158.8z M145.3,157.8c0.7-0.6,1.3-1.2,1.9-1.9h0
			C146.6,156.6,146,157.2,145.3,157.8c-0.6,0.5-1.1,0.9-1.7,1.2C144.1,158.6,144.7,158.2,145.3,157.8z M138.4,160.7
			c0.1,0.1,0.2,0.2,0.2,0.4C138.5,160.9,138.5,160.8,138.4,160.7L138.4,160.7z M138.4,161.3c-0.1,0.1-0.3,0.3-0.4,0.3
			C138.1,161.6,138.2,161.5,138.4,161.3z M135.6,161.7c-1.1,0.6-2.1,1.2-3.3,1.8C133.5,162.9,134.6,162.3,135.6,161.7z"/>
		<path class="st1" d="M343.7,168.3c3.3-2.2,6.9-3.9,10.3-5.8c2.5-2.1,5-4.2,8-5.3c0.4-0.3,0.9-0.7,1.3-1c0.1-1.7-1.2-1.2-1.9-1.8
			c-2.5-0.5-5-2.6-7.5-1.2c-7.3,4.3-14.5,8.9-21.9,13.4C335.8,170.1,339.5,171,343.7,168.3z"/>
		<path class="st1" d="M355.5,178.6c6.2-3.8,12.5-7.5,18.7-11.3c2.8-0.3,4.8-2.8,7.4-4.1c-2.3-1.7-2.2-1.6-4.5-0.4
			c-1,0.6-1.8,0.1-2.8-1c-2-2.4-3.5-6.5-7.2-4.3c-0.5,0.3-1,0.6-1.5,0.9v0c-0.5-0.1-0.9-0.2-1.4-0.3c-0.2,0.1-0.4,0.1-0.7,0.1
			c-2.6,2.4-5.8,3.4-8.6,5.2c-4.5,2.9-9.4,5.1-13.8,9.1c3.8,3.1,7.4,1.8,11,0.7c5.3-4.2,11-7.4,17.1-9.3c0,0.5,0,1,0.1,1.4h0
			c-5.9,2.4-11.1,7-17.1,9c-1.1,1.2-2.5,0.6-4.3,1.4C350.5,177.4,352.3,180.5,355.5,178.6z M365.3,159.3c0,0.1,0,0.2,0,0.3
			C365.3,159.5,365.3,159.4,365.3,159.3z"/>
		<path class="st1" d="M284.4,117.6C284.4,117.6,284.4,117.6,284.4,117.6c-0.3,0-0.5,0.1-0.7,0.2c-0.5-0.1-0.6,0.3-0.7,0.7
			c-3,1.9-6,3.7-9.1,5.6c-16.5,9.9-33.2,19.6-49.6,29.6c-16.4,10-32.8,20.4-49.1,30.6c-4.3,2.7-8.6,5.4-13.8,8.7
			c1.7,0.3,2.3,0.4,2.8,0.5c0.2,0.4,0.3,0.8,0.8,0.5l0.3,0.1l0.4,0c1.5,1.8,3.6,1.3,5.3,2.8c3.8,3.2,8,5.9,12.5,7.4
			c10.8-3.8,20.2-11.6,30-17.9c14.7-9.4,29.2-19.4,44.3-27.7c7.1-3.9,13.8-8.5,21.1-11.8l-0.1,0.3l0.2,0.2c-2.1,2.5-5.1,3.1-7.3,5.3
			v0c-1.7,1.1-3.9,1.1-5,3.6c0.1-0.2,0.1-0.3-0.1-0.4c-7.5,3.1-14.3,8.2-21.4,12.6c-18,11.3-35.9,22.8-53.8,34.2
			c-1.8,1.1-3.6,2.1-5.4,3.2c1.6,2.1,4,2.5,6,3.6c0,0,0-0.1,0-0.1c0.2,0.3,0.5,0.5,0.7,0.8c0.2,0.1,0.5,0.1,0.7,0.2
			c1.7,0.7,3.2,2.9,5.2,1c0.6-0.1,1.3-0.2,1.9-0.2c6.8-5.9,14.5-10,21.7-15c21.7-15.1,44.4-27.8,66.9-40.8c3.2-1.8,6.1-4.4,9.7-4.5
			c0.1-1.3,0.8-0.8,1.4-0.8c-0.1,0.2-0.2,0.4-0.1,0.6c-0.4,0.1-0.9,0.2-1.3,0.3l0,0c0,0,0,0,0,0c0,0,0,0,0,0c0,0,0,0,0,0
			c-5.8,3.6-11.5,7.3-17.4,10.7c-16.7,9.6-33.3,19.7-49.5,30.6c-8.9,5-17.2,11.5-25.9,16.9c-1.5,0.9-2.8,2.3-4.5,2.2
			c-0.4,1.4-1.7,1.3-2.4,2.5c3.8,2.2,7.4,4.8,11.4,6.3c4.4-2.5,8.9-5,13.3-7.4c-3.9,3.2-7.3,7.5-12.3,7.6c1,2.9,3.6,2.7,5.3,4.4
			c3,2.8,5.9,2.2,9.2,0.2c9.6-5.9,19.3-11.4,29-17.2c11.6-6.9,23.2-13.8,34.7-20.7c11-6.6,22-13.1,33.1-19.6
			c8.6-5.1,17.6-9.4,25.9-15.3c2.4-0.8,4.3-2.6,6.8-5.1c-5.3-1-8.6-6.5-13.8-5.3c-0.7-4.6-2-0.7-3.1-0.4c0,0.6,0,1.1,0,1.7
			c-0.7,0.2-1.4,0.4-2.2,0.5c-10.5,6.7-21.2,12.8-31.5,20h0l0,0c-0.4,0.2-0.9,0.3-1.3,0.5c-18.7,11-37.7,21.1-56.2,32.8
			c-0.7,0.1-1.4,0.1-2.1,0.2c-0.2,0.9-0.8,0.9-1.4,1c-1.5,1.4-3.1,2.4-5,2.6c1.4-1.4,3-2.4,4.8-2.9c0.4-0.7,1-1,1.6-0.6
			c5.3-5,11.4-8.3,17.3-11.7c23.8-13.6,47.6-27.1,70.8-42c0.3-0.2,0.7-0.2,1-0.4c0.7-2.3-0.8-2.2-1.8-2.8c-4.3-2.5-8.6-5.1-12.6-8.3
			c-2.3,0.5-4.4,1.6-6.6,2.8c-8.7,5-17.2,10.4-26.2,14.7c-0.3,0.8-0.8,0.9-1.4,0.9c0.1-1,0.8-0.9,1.3-1c7.7-5.8,15.8-10.4,23.9-15
			c1.7-0.9,3.4-1.8,5.1-2.7c-0.4-2.1-2.4-1.1-2.9-2.9c-0.5-0.5-1-0.8-1.5-0.9c0.5,0.1,1.1,0.4,1.5,0.9c1-0.4,2.2,0.1,3.1-0.9
			c0.2,1.6,0.7,2.8,2.3,2.6c0.3-2.3-1.2-2.2-2.2-2.7c0.3-1.7,1.4-0.6,2.1-0.9c-1.1-1.4-2.4-1.2-3.9-1.2c-2.3,0-5.1,0.2-6.2-3.8
			c-0.9-3.2-2.9-4.3-5.2-2.9c-1.3,0.7-2.2,0.5-2.6-0.8c-0.9-3.1-2.3-1.8-3.9-1.4c-1,0.3-1.7,1.8-2.9,1.2c0.1,0.2,0.1,0.5-0.1,0.8
			c0,0.3-0.1,0.5-0.1,0.8h0c-5.8,3.5-11.5,7.2-17.4,10.5c-8.5,4.8-17.1,9.3-25.6,14c-0.8,0.5-1.6,1.2-2.6,0.6c0,1.4-0.9,0.8-1.4,0.9
			c-0.5,1.1-1.3,1.2-2.2,0.9c-0.9,2.2-2.8,2.5-4.3,3.6c0.5-2.9,2.6-2.9,4.3-3.7c0.5-0.9,1.2-1.3,2.1-0.9c0.1-1.3,0.9-0.9,1.4-0.9
			c4.1-4.3,9.2-6,13.8-8.9c6-3.8,12.1-7.2,18.2-10.7c4.8-1,8.6-4.8,12.8-7.2c0.2-0.2,0.4-0.2,0.7-0.1c0.7-1.1,1.4-2.2,2.3-3.5
			C291.2,111.6,288,115.6,284.4,117.6z M178.3,197.6c2.6-3.6,6.2-5,9.4-7c4.4-2.7,8.5-6.2,13.4-7.2
			C193.9,189.1,185.9,193,178.3,197.6z M201.2,183.4c1.6-2.8,4.4-2.7,6.6-4.2C206,181.4,203.8,182.9,201.2,183.4z M209.2,178.5
			c0.7-0.5,1.3-1.4,2.3-1C210.8,178.4,210.2,179,209.2,178.5z M352.5,147.8c-2,0.6-2.5-0.8-2.7-2.6
			C350.6,145.9,351.4,146.7,352.5,147.8z M340.6,149.1c0.2-0.6,0.6-0.8,1.1-0.7c0.1,0,0.2,0.2,0.3,0.3c-0.4,0.2-0.8,0.4-1.2,0.7
			c-0.1,0.4-0.5,0.8-0.7,0.4C339.8,149.2,340.3,149.2,340.6,149.1z M335.4,152.3c0.5-0.3,0.9-0.6,1.4-0.8c0.3-0.2,0.6-0.4,1-0.6
			c0.4-0.7,0.8-1,1.5-0.4c-0.4,0.3-0.7,0.6-1.1,0.9c-0.3,0.2-0.6,0.4-1,0.6c-0.2,0.9-0.9,0.9-1.4,0.9c-0.3,0.9-0.8,0.9-1.4,0.8
			C334.2,152.6,334.9,152.7,335.4,152.3z M308.4,166.8c-0.4,0-0.9,0.1-1.4,0.1v0C307.5,166.9,307.9,166.9,308.4,166.8L308.4,166.8
			c0.1,0.2,0.3,0.4,0.4,0.6c2.6,0,4.8-1.1,6.9-3.1c0-0.6,0-1.1-0.1-1.7c4.9-2,9.5-5,14.3-7.6c1.3-0.7,2.6-2,4.2-1.4
			c-5.9,4.4-12.2,7.5-18.4,10.7c-2.1,1.9-4.3,3-6.9,3.1c-0.6,1-1.3,1.4-2.1,1.6c0.8-0.2,1.6-0.6,2.1-1.6
			C308.7,167.3,308.5,167.1,308.4,166.8z M304.9,168.7c0.1,0.2,0.2,0.3,0.3,0.5C305.1,169.1,305,168.9,304.9,168.7L304.9,168.7z
			 M232.5,207.8c-2.4,2.2-4.9,4.1-7.9,4.5c2.3-2.3,4.8-3.9,7.5-5.1c1.2-0.8,2.3-1.6,3.5-2.4C235.1,206.9,233.8,207.5,232.5,207.8z
			 M234.2,199.3c-0.5,0.6-1.8-0.8-1.5-1.7c0.7-1.7,2.3-1.5,3.7-1.5c0.9,0,1.7-0.1,1.7,1.4C237.5,200.4,235.4,198,234.2,199.3z
			 M238.8,200.6c0,0,0.1-0.1,0.1-0.1c0,0,0,0,0,0L238.8,200.6z M283,163.6c-0.1-0.1-0.2-0.1-0.3-0.2
			C282.8,163.5,282.9,163.5,283,163.6L283,163.6z M300.6,149.3c0.1,0,0.3,0.2,0.4,0.3c-0.3,0.2-0.6,0.3-0.8,0.5
			C300,149.7,300.2,149.4,300.6,149.3z M310,126.6c0.2,0.3,0.4,0.6,0.6,0.9c-2.4,1.8-4.7,3.7-8.2,4.8
			C304.9,129,307.8,128.5,310,126.6z M300.8,132.9c0.2-0.6,0.5-0.9,1-0.8c0.1,0,0.2,0.4,0.3,0.5c-0.4,0.1-0.8,0.2-1.2,0.4
			c-0.4,1.1-1.1,1.8-2.2,1.4C299,133,299.9,133,300.8,132.9z M296.7,120c-0.6-0.2-1.2-0.4-1.8-0.5
			C295.5,119.6,296.1,119.7,296.7,120z M296.9,135.2c0.3-0.3,0.6-0.7,1-0.1c-0.2,0.2-0.4,0.4-0.6,0.7c-0.8,1.1-1.8,1.7-3.5,1.4
			C295.1,136.4,296,135.8,296.9,135.2z M285.4,143.2c-0.1-0.1-0.1-0.2-0.2-0.2C285.2,143,285.3,143.1,285.4,143.2z M284.4,151
			c0.2-1.1,0.8-1,1.4-0.9C285.5,150.9,285,150.9,284.4,151c-0.2,0.6-0.5,0.8-1,0.7c-0.1,0-0.1-0.2-0.1-0.3
			C283.7,151.2,284,151.1,284.4,151z M272.8,142.6c0.3-2.5,2.3-1.7,3.2-2.5c1.6-0.2,2.2,0.5,2,2c-0.3,2.1-1.8,2.4-3.2,2.7
			C273.5,145.1,272.6,143.9,272.8,142.6z M267.4,139.3c-5.1,5.5-11.5,7.7-17.4,11.1C255.4,145.7,261.3,142.3,267.4,139.3z"/>
		<path class="st1" d="M223.7,130c-6.1,3.8-12.2,7.5-18.4,11.1c-12.9,7.5-25.7,14.9-38.6,22.4c-3.7,0.7-6.8,3.5-10.4,4.7
			c-5.8,3.9-12,6.6-18,9.8c5.4,4.9,12.1,6.8,17.6,11.5c1.1,0.9,2.8,0.2,4.1-0.5c3.4-2,6.7-4.1,10.1-6.1
			c15.5-9.6,30.9-19.2,46.4-28.7c8.5-5.2,17-10.3,25.7-15.5c-3.6-3.4-7.8-5.5-12-7.3c-0.4,0.6-1,0.8-1.6,0.9
			c0.6-0.1,1.2-0.3,1.6-0.9C228.2,130.3,226.3,128.4,223.7,130z M214.8,140.6c-0.8,0.7-1.6,1.4-2.3,2.2h0
			C213.3,142,214,141.3,214.8,140.6z M212.5,142.8L212.5,142.8c-0.1,0.4-0.3,0.7-0.4,0.8C212.2,143.5,212.4,143.2,212.5,142.8z
			 M155.2,178.2c0.1,0,0.1,0.2,0.1,0.4c-0.4,0.1-0.7,0.2-1.1,0.2C154.4,178.3,154.7,178.1,155.2,178.2z M149.6,182.4
			c-0.1,0-0.1-0.2-0.2-0.2c0.1-0.1,0.1-0.2,0.2-0.3c0.1,0.1,0.1,0.2,0.2,0.3C149.8,182.2,149.7,182.4,149.6,182.4z M150.8,181.1
			c0.4-0.2,0.8-0.3,1.2-0.5c0.4-1.2,1.2-1.5,2.1-1.8c-0.2,1.4-1,1.9-2.1,1.8c-0.1,0.7-0.5,0.9-1,0.8
			C150.9,181.5,150.9,181.3,150.8,181.1z M177.1,172c-8.1,6-17,9.7-25.9,13.3c8.3-5.2,16.6-10.5,25.5-13.8c0.3-0.3,0.6-0.7,0.8-1
			c0.3,0.4,0.6,0.8,0.9,1.3h0C178,171.8,177.6,171.9,177.1,172z M180.3,171.7c1.5-0.2,2.9-1.1,4.2-2.1
			C183.2,170.6,181.8,171.4,180.3,171.7z M190.5,162.9c0.1,0.1,0.3,0.2,0.4,0.4C190.7,163.1,190.6,163,190.5,162.9z M221.3,144.1
			c-0.8,1.6-2.3,1.4-3.5,1.8c-0.5,0.3-1,0.6-1.5,0.8c-1.5,1.4-3.1,2.4-5,2.6c-0.5,1-1.4,0.7-2.1,0.9c-0.9,1.2-2.3,1.4-3.4,2
			c-5,2.3-9.8,5.8-15.2,6.8c-11.5,5.5-22.8,11.6-33.9,18.5c5.9-6.2,13.2-8.8,19.8-13.2c0.6-0.4,1.4-0.3,1.5-1.5c0,0,0,0,0,0
			c1.1-0.4,2.1-0.9,3.2-1.3c0.1-1.1,0.6-1.7,1.2-2c-0.6,0.3-1.1,0.9-1.2,2c1.5,0.3,2.4-0.3,2.4-2.4c0.2,0.1,0.3,0,0.5,0
			c-0.2,1.5,0.4,1.4,1.2,0.9c1.6-1,3.4-1,5.1-1.2c4.8-3,9.7-5.5,14.9-7.3c1-1.2,2.3-1.4,3.5-1.8c0.7-0.4,1.3-0.7,2-1.1
			c1.7-0.9,3.3-2.3,5.3-2.3c0.3-0.8,0.9-0.7,1.5-0.8c1-1.1,2.2-1.8,3.5-1.9c0.2-0.6,0.5-0.8,1-0.7c0.1,0,0.2,0.3,0.4,0.5
			C222,143.7,221.6,143.9,221.3,144.1z M223.8,142.8c-0.2,0-0.3-0.2-0.5-0.3c0.2-0.1,0.3-0.3,0.5-0.3c0.2,0,0.3,0.2,0.5,0.3
			C224.1,142.6,223.9,142.8,223.8,142.8z M225.9,136c0.7-0.2,1.3-0.4,2.1-0.4C227.3,135.7,226.6,135.8,225.9,136z M228.7,134
			c-0.9-0.1-1.8-0.2-2.8-0.4l0,0C226.8,133.7,227.8,133.9,228.7,134z"/>
		<path class="st1" d="M334.4,142.8c0.7-2.3-0.8-2.2-1.8-2.8c-4.3-2.5-8.6-5.1-12.6-8.3c-0.4-0.5-0.9-1-1.3-1.5
			c0.3-2.3-1.2-2.2-2.3-2.7l0,0c0.3-1.7,1.4-0.6,2.1-0.9c6.6,3,12.9,6.7,19.2,10.5c1.9,1.1,0.7,2.6,0.7,4c0,0.6,0,1.1,0,1.7
			c-0.7,0.2-1.4,0.4-2.2,0.5C335.7,143.2,335.1,143,334.4,142.8z M337.5,140.9c-0.1,0-0.2,0-0.2,0.1c0,0.1,0,0.2-0.1,0.3
			c0.1,0,0.2-0.1,0.4-0.1C337.5,141.1,337.5,141,337.5,140.9z"/>
		<path class="st1" d="M211,83.6c4.5-4.8,9.2-8.2,14.1-10.9c1.9-1,4.5,0.4,6.5-1.6c3.2-3.2,7.3-4,10.8-6.4c0.5-0.4,1.3-1.4,1.8-0.3
			c0.5,0.9-0.2,1.5-0.9,2c-6.9,4.2-13.7,8.4-20.6,12.5c-2.9,1.7-5.8,3.1-8.7,4.8C213.2,84.2,212.4,84.5,211,83.6z"/>
		<path class="st1" d="M210.4,84.4c-0.1,1.6-0.9,1.6-1.5,1.9c-2.9,1.3-5.7,2.6-8.5,3.9c-0.7,0.3-1.4,0.6-1.7-0.6
			c-0.3-1.2,0.5-1.4,1.2-1.7c3-1.5,6-3,9-4.7C210.2,82.5,209.9,84.2,210.4,84.4z"/>
		<path class="st1" d="M236.7,74.4c1.8-3.9,5.6-3.2,7.9-5.7C243,72.8,239.7,73.3,236.7,74.4L236.7,74.4z"/>
		<path class="st1" d="M125.7,145.6c-0.9,2.1-2.7,2.4-4.1,3.3c-0.6,0.4-1.5,1.7-2.1,0.4c-0.6-1.3,0.5-1.7,1.2-2.2
			c0.5-0.3,1-0.7,1.6-1c-1.4-1.7-2.6,1.1-4-0.1c1-2.6,3.3-2.7,5-3.8c7.6-5,15.2-9.9,22.9-14.7c6.2-4,12.5-7.9,18.8-11.6
			c0.9-0.5,2.1-0.4,1.6-2c-0.4-1.2-1.4-0.4-2.2,0.1c-8.8,5.3-17.7,10.4-26.4,16c-11.3,7.3-22.8,14.2-34.3,21.1
			c-0.6,0.4-1.4,0.6-1.9,1.2c-2.7,3.7-5.6,2-9,0.2c6.9-4.2,13.3-8.2,19.8-12.1c7.9-4.7,15.8-9.4,23.6-14.2c10-6,20.2-11.5,30.1-17.8
			c4.3-2.8,9.5-3.3,13-7.9c0.6-0.7,1,0,1.4,0.5c1.1,1.1,1.7,0.7,1.9-1l0,0c2.2-1,4.5-0.3,6-4.2c1-2.6,4.7-3.8,8-4.7
			c-1.8,4-5.6,3.1-7.8,6.7c3.8-1.5,7.1-2.8,10.4-4c-4.8,4.8-10.7,6.3-16,9.6c-4.5,2.8-9.2,5.1-13.8,7.7c-0.8,0.4-2.2,0.9-1.6,2.4
			c0.7,1.8,1.5,0.1,2.3-0.3c8.8-4.3,17.4-9.2,26.1-13.9c9.3-5.1,19.2-8.2,28.1-14.4c0.7-0.5,1.3-0.8,1.1-1.9l0,0
			c0.8,0.2,1.7,0.3,2.2-0.9l0,0c4.3-0.4,8-2.9,11.6-5.6c1.6-1.2,3.3-1.8,5.8-2.8c-2,4.5-5.8,4.2-7.5,7.3c-1,0.4-2.2,0.3-2.9,1.8
			c1.4,0.5,2.3-0.4,3.2-1.4c2.4,0.5,4-2.3,6.5-1.8c-5,3.3-10,6.5-15,9.7c-6.2,4-12.9,6.5-18.7,11.4c-0.4,0.3-0.9,0.1-1.2-0.5
			c0.3-0.4,0.8-0.8,0.2-1.4c-0.2,0.3-0.4,0.7-0.6,1c-6.9,2.1-13.3,5.9-19.8,9.3c-7.9,4.1-15.6,8.8-23.3,13.3
			c-0.4,0.2-0.9,0.3-1.3,0.6c-1.1,0.9-2.6,3.1-3.4,1.3c-0.8-2,1.8-2,2.8-3.1c0.4-0.5,1.1-0.7,0.8-2c-2,0.7-3.9,1.7-5.5,3.3
			c-0.3,0.3-0.8,1.3-0.8,1.4c0.9,0.9,2.8,1.9,0.3,3c-1.6,0.7-3.6,4-5.3,0c-0.3-0.7-0.8-0.4-1.2-0.1c-3.3,2.2-6.6,4.5-9.9,6.7
			c0,0,0,0,0,0c-1.9,0.3-3.6,1.1-5,2.7c-0.7,0.9-4.1,1.6-0.4,3.6c0.5,0.3-0.9,1-1,1.9l0,0c-1.9-0.2-4,3.3-5.9-0.6
			c-0.3-0.5-3.5,0.5-4,3.3l0,0c-0.7,0.1-1.9-0.4-1.8,1.1C124,145.8,125.1,145.5,125.7,145.6L125.7,145.6z M181.4,109.8
			c4.2-0.9,7.8-3.6,11.4-6.2c0.7-0.3,1.6,0.2,2.1-0.9c-0.9-0.8-1.7-0.4-2.4,0.4c-4.1,1.2-7.8,3.6-11.4,6.3c-1.9,0.2-3.5,1.2-4.9,2.8
			c-3.8,0.7-6.7,4-10,6c3.7-1.1,7.5-2,10.2-5.7C178.4,112.7,180.1,111.9,181.4,109.8z M195.7,101.7c1.2,0.3,1.7,0.7,2,0.5
			c7.5-4.9,16.3-5.7,23.7-11.3c3-2.3,6.4-3.8,9.6-5.6c0.9-0.5,2.6,0,2-2.1c-0.5-1.5-1.6-0.3-2.4,0.1c-5.9,3.4-11.7,7-17.8,9.8
			C207.3,95.7,201.6,97.5,195.7,101.7z M132.6,140.2c0.6-0.2,1.4,0,1.4-1.1c0-0.2-0.5-0.6-0.8-0.7c-0.6-0.1-1.2,0.1-1.3,1.1
			C131.9,139.8,132.4,140,132.6,140.2z"/>
		<path class="st1" d="M135.7,141.1c4.5-0.1,8-3.7,12-5.8c6.1-3.3,12.1-7,18.1-10.7c5.4-3.4,11-6.4,16.5-9.9c6.2-3.9,12.7-7,19-10.3
			c0.2-0.1,0.6,0.2,1.7,0.6c-32.1,19.2-63.5,38.1-95,57c-0.2-0.5-0.4-1-0.6-1.5c3.5-2.2,6.9-4.6,10.5-6.6c5.9-3.2,11.2-8,17.4-10.3
			C135.9,143.1,135.8,142,135.7,141.1L135.7,141.1z"/>
		<path class="st1" d="M215,258.7c2.2-1.6,1.5-2.4,0.4-4.3c2.4,0.5,4.2,1.6,6.1,1c1.1-0.4,2.5-0.7,1.1-2.7c-2.8-1.9-5.6-3.7-8.5-5.6
			c3.6,0.2,6.3,2.8,9.2,4.8c4.7,1.2,8-2.2,11.4-5.4c-10-5.9-20-11.9-30-17.8c-12.8-7.6-25.6-15.2-38.4-22.7
			c-3.2-1.8-6.3-3.6-9.1-6.3c-0.6,0.1-1.2,0-1.5-0.9c-0.4-0.1-1,0.1-0.7-0.9c-0.9,0.4-1.6,0.2-2.1-0.9c-0.6,0-1.4,0.4-1.4-0.9
			c-1.3,0.2-2.3-0.2-2.8-1.8c-2.5,0.4-4.4-1.5-6.4-2.7c-17.5-10.4-34.9-20.9-52.4-31.3c-1-0.6-2.1-1.3-3.1-1.9
			c-2.2-0.4-4.2,0.5-6.3,1.6c-1.3,0.7-0.2,1.2-0.1,1.9c3.5,2.2,7,4.3,10.5,6.5c-0.2,0.3-0.4,0.6-0.6,0.8c-3.4-1.8-6.8-3.6-9.9-6.2
			c-0.7-0.3-1.5-0.8-2.2-0.9c-1.7-0.4-3.6,0.9-4.1,2.7c1.7,1.1,3.4,2.2,5.1,3.3c-2.1,0.7-3.6-0.6-5.1-1.7c-2.7-1.3-5-0.7-7,1.9
			c4,2.7,8.4,4.6,12.1,8c0,0.4-0.1,0.9-0.1,1.3c-4.6-2.5-9.3-4.9-13.6-8.2c-2.6,0.5-5,1.5-7.2,4c14.1,8.3,27.9,16.4,41.8,24.4
			c15.4,9,30.8,17.9,46.2,26.9c19.5,11.4,39,22.8,58.4,34.4C208.2,261.2,211.2,261.4,215,258.7z M92,184.7L92,184.7
			c0.2,0.2,0.4,0.4,0.6,0.5C92.4,185,92.2,184.8,92,184.7z M93.1,185.3c0.2,0,0.4-0.1,0.7-0.5h0C93.5,185.2,93.3,185.3,93.1,185.3z
			 M95.1,186c0.1,0,0.1,0,0.2-0.1C95.3,186,95.2,186,95.1,186z M131,192.9L131,192.9c1.9,0.7,3.7,1.4,5.5,2.4
			C134.7,194.3,132.8,193.6,131,192.9z M143.7,200.2c0.1,0.1,0.2,0.1,0.3,0.2C143.9,200.3,143.8,200.3,143.7,200.2z M147.5,202.7
			L147.5,202.7c0.2,0.3,0.3,0.5,0.5,0.7C147.8,203.1,147.6,202.9,147.5,202.7z M152.6,206.1L152.6,206.1c0.1-0.2,0.3-0.4,0.4-0.6
			C152.9,205.7,152.8,205.9,152.6,206.1z"/>
		<path class="st1" d="M326.9,196.1c7.4-4.5,14.9-8.6,22.3-14c-2.8-1.4-4.9-3.8-7.8-3.3c-2.6-4.1-6.5-5.1-10-7
			c-1.8-1-3.4-2.9-5.9-1.4c-18.1,10.7-36.4,21.1-54.4,32.2c-13.6,8.4-27.4,16.3-41.2,24.5c-1.6,0.9-3.5,1.2-4.5,3.7
			c1.5,0.6,2.8,1.1,4.1,1.6l0-0.2c0.2,1,0.9,0.7,1.4,0.9c2.6,2.1,5.1,4.7,8.5,2.5c8-5.4,15.9-10.7,23.9-16.1
			c0.7-0.5,1.6-0.7,1.9-1.8c0.5-0.2,1.1-0.1,1.4-0.8c0,0,0,0,0,0c0.9-0.4,1.9-0.8,2.8-1.3c0.5,0.1,1,0.3,1.5,0.4
			c-10.4,6.4-20.1,14.6-30.7,20.5c-0.9,0.7-2.7,1.3-0.4,2.7c1.9,1.2,4,1.6,6.1,0.9c7-5.9,14.7-10.1,22.1-14.9
			c17.9-11.5,35.8-22.9,53.8-34.3c0.9-0.6,1.8-1.5,3.5-0.6c-11.3,7.2-22.2,14.1-33.1,21.2c-14.9,9.7-30,19.3-44.6,29.7
			c-0.6,3.4,1.2,1.8,2,1.4c5.4-2.8,10.6-6,15.9-9.1C286.1,221.2,306.5,208.6,326.9,196.1z M246.9,221.4c-1.6,0.9-3.2,1.9-4.9,2.8
			C243.6,223.2,245.3,222.3,246.9,221.4c0.2,0,0.4-0.1,0.7-0.2C247.3,221.3,247.3,222.3,246.9,221.4z M275,211.9
			C275,211.9,275,211.9,275,211.9c0.5,0.1,1,0.2,1.5,0.2C276,212.1,275.5,212,275,211.9z M320,179.9C320,179.9,320,179.9,320,179.9
			L320,179.9c-0.5,0.3-0.9,0.5-1.4,0.8c-0.5,0.4-1,0.7-1.5,1.1c-17.7,10.9-35.3,22.2-53.3,32.2c0,0.6,0.1,1.1,0.3,1.5
			c-0.2-0.4-0.3-0.9-0.3-1.5c-5.4,2.3-10.3,6.3-16,7.2c8.3-5,16.6-10.1,24.9-15.1c17.4-10.5,34.9-20.9,52.4-31.3
			c1.1-0.6,2.1-2,3.5-1.3c-0.1-1.3,0.7-0.8,1.1-0.6c0.3,0.2,0.1,0.7-0.2,0.9c-0.3-0.1-0.5-0.2-0.8-0.3
			C325.7,175.6,322.8,177.8,320,179.9z"/>
		<g>
			<path class="st1" d="M152.8,196.9c0.8-0.1,1.6-0.1,2.1,0.9c0.3,0.2,1,0,0.8,0.8c0.8-0.6,1.3-0.3,1.4,1c4.7,0.6,8.5,4.1,12.7,6.4
				c22.1,12.6,43.7,26.6,65.9,38.8c0.2,0.1,0.3,0.4,0.4,0.7c1.1-0.3,2.3-0.6,3.5-1c-1.2-1.8-2.6-2.8-4.1-3.7
				c-5.2-3.2-10.3-6.5-15.5-9.5c-23.1-13.6-46.3-27.2-69.4-40.8c-17-10-34.1-19.9-51.2-29.8c-3-1.7-6-3.4-9.1-4.9
				c-1.9-0.9-2.8-0.2-3.1,1.7c19.8,11.7,39.6,23.4,59.4,35.1c0.6,0.4,1.7,0.3,1.9,1.6c1.1,0.1,2.1,0.7,2.8,1.8
				C151.9,196,152.6,195.8,152.8,196.9z"/>
		</g>
		<path class="st1" d="M104.2,159c0.9-3.1,2.4-3.9,4-4.4c1.7-0.6,1.7-0.6,1.6-3.3c0-0.4,0.2-1,0.4-1.1c2.1-1.3,4-3.1,6.7-2.4
			c-1.4,0.9-2.8,1.9-4.3,2.9c1.2,1.2,2.2,0.7,3.2-0.4c0.6-0.7,1.7-1.4,2.2-0.3c0.7,1.5-0.7,2-1.4,2.4
			C112.8,154.5,108.8,156.5,104.2,159z"/>
		<path class="st1" d="M33.9,156.2c6.5,3.7,13,7.4,19.4,11.2c0.9,0.5,1.7,1.1,2.7,0.5c7.3-4.5,15.2-7.6,22.1-13.2
			c2-0.1,3.7-1.3,5.5-2.4c-7.5-5.3-15.3-9.5-23.1-13.7c-1.9-1-3.8-2.8-6.3-1.4c-8.8,5.1-17.7,9.9-27.3,15.2c2.6,1.3,4.4,2.2,6.3,3
			C33.3,156,33.5,156.3,33.9,156.2z"/>
		<path class="st1" d="M241.7,248c-8.5,4.1-16.3,9.9-24.6,14.5c-0.6,0.3-1.1,0.6-0.9,1.7c2.3,0.8,4.7,1.4,6.8,3
			c4.3,3.3,8.8,6,13.6,8.1c0.2,1,0.9,0.8,1.5,0.9c1.7,1.9,3.9,2.5,5.9,3.7c1,0.6,1.9,1.9,3.2,1.1c7.4-4.6,14.9-9.2,22.3-13.8
			c-6.2-4.1-12.6-7.8-19.2-10.8h0c-3.3-2.7-6.6-2.9-9.9,0.1c-4.5,1.7-8.4,4.8-12.6,7.2c-1.5,0.9-2.9,1.7-4.5,2.1
			c1.2-2.5,3.4-2.9,5.3-4.1c4.8-3.1,9.7-6,14.6-8.9c1.2-0.7,2.2-1.1,3.6-0.4c8.2,3.7,16,8.4,23.6,13.6c1.5-0.7,3-1.5,5.2-2.6
			c-9.9-5.4-18.7-11.7-28.2-16C245.3,246.4,243.6,247,241.7,248z M246.4,275.9c0.6-0.1,1.2-0.3,1.7-0.6
			C247.5,275.6,247,275.8,246.4,275.9z"/>
		<path class="st1" d="M441.2,177.1c0,0.9-0.1,1.8-0.1,2.6c0,0.4,0,0.7,0,1.1v0c0,8.3,0,16.7,0,25c0.2,3.6-1.4,7.8,1.9,11.4
			c0-13.4,0-26,0-38.5v0c0-4.5,2.9-5.7,5.4-7.2c6.8-4.2,13.8-8.3,20.6-12.5c0.7-0.5,2.6-0.4,1.8-2.4c-0.6-1.6-1.8-1-3-0.4
			c-8,4-15.7,8.7-23.5,13.4C441.5,171.1,439.3,172.7,441.2,177.1z M441.6,199.6c0.1-2.1,0.2-4.2,0.2-6.3
			C441.8,195.4,441.8,197.5,441.6,199.6z"/>
	</g>
	<g id="Face_right">
		<g id="Shadow_1_">
			<path class="st1" d="M249.5,492.5c0-0.1,0-0.1,0-2c0-0.9,0-1,0-1.9c0-0.6,0-0.8,0-1.6c0,0,0-0.7,0-1.5c0-1.6-0.1-15.4-0.1-17
				c-0.2-9.8,0-104.7,0.1-125.6c0-3.3,4.8-9.2,7.4-8.9c2,0.2,1.8,2.5,1.8,4.2c0.1,8.1,0.1,16.2,0.1,24.3c0,5.6,0,11.1,0.5,16.7
				c1.2-1.2,1-2.7,1-4.1c0.1-13.8,0.2-27.6,0.1-41.3c0-2.3,1-3,2.3-3.1c1.8-0.1,1.1,1.9,1.1,3c0.1,14.1-0.2,28.2,1.1,42.2
				c0.6-7.4,1.2-14.8,0.7-22.4c-0.4-6.7-0.3-13.5-0.2-20.2c0-3.3,1.2-5.9,4-7c1.8-0.7,3.4-2,5.4-3.2c1.4,18.9,1,37.3,1.7,55.8
				c0.3-4.4,0.7-8.8,0.8-13.2c0.1-13.4,0.1-26.7,0.1-40.1c0-0.9,0-1.8,0-2.7c0.1-1.5,0.9-2.2,1.9-2.2c1.2,0,0.9,1.5,1,2.4
				c0.2,9.1,0.5,18.3,0.5,27.4c-0.1,12.4-0.2,24.9-0.3,37.3c0,0-0.2,25.2,0.2,82c0,1.1,0,2,0,2c0,1.1,0,1.9,0,1.9
				C280.6,476.8,250.7,494.7,249.5,492.5z M276,384.2c0,30.1,0,60.1,0,90.2c0.3-0.1,0.5-0.3,0.8-0.4c0-29.9,0-59.9,0-89.8
				C276.5,384.2,276.3,384.2,276,384.2z M271.4,362.5c-0.4,0-0.7,0-1.1,0c0.3,37.5,0.6,74.9,1,112.4c0.1-0.4,0.1-0.8,0.2-1.2
				C271.4,436.6,271.4,399.6,271.4,362.5z M252.9,462.9c0.3-4.1,0.8-7.9,0.8-11.6c0.1-18.7,0-37.5,0-56.2c0-1,0-2.1-0.1-3.1
				c0-0.6-0.4-1.1-0.9-1.1c-0.6,0.1-0.8,0.7-0.6,1.3c0.8,3.9-0.3,7.7-0.3,11.6c0,18.1,0,36.3,0,54.4
				C251.8,459.6,251.2,461.5,252.9,462.9z M259.9,478.4c0.1-18.3,0.1-27.4,0-27.4c-0.1,0-0.3,9.1-0.7,27.4
				C259.4,478.4,259.7,478.4,259.9,478.4z M260.6,445.1c1.2-6.4,1-12.2,1-18c0-0.9,0.3-2.5-0.8-2.5c-1.3,0-1.1,1.7-1.1,2.8
				C259.6,433,259.4,438.6,260.6,445.1z"/>
			<path class="st1" d="M287.4,352.2c-1.3,0.2-2-0.4-1.9-2.2c0.1-1.9-0.6-4.2,1.4-5.4c1.8-1.1,3.7-1.9,5-3.8
				c1.5-0.2,2.8-0.6,3.9-2.7c-2-0.1-3.1,0.9-4.1,2.4c-1.5,0-2.7,1.1-4,1.8c-0.6,0.3-1.3,1.2-1.9,0.4c-0.6-0.8-0.5-2-0.2-3
				c0.5-2.2,2.2-3.2,3.6-4.1c10.5-6.8,21.1-13.3,31.5-20.3c7.2-4.8,14.1-10.1,21.1-15.2c0.6-0.4,1.1-1.1,1.2-2.1l0,0.1
				c0.7,0.4,1.7-0.3,2.5,0.8c-2.2,1.6-1.8,4.2-1.7,6.7c0,1.3,0.2,2.7,1.5,2.3c1.7-0.4-0.3-1.4,0.1-2.2c0.7-1.6,0-4,1.8-5
				c0.6-0.3,1.1-0.6,1.6,0.2c1.2,1.7-0.1,3.1-0.3,4.6c0,0.1,0.3,0.3,0.6,0.6c1.6-1.5,2.7-3.4,2.4-6c-0.4-2.5-2.1-2.9-3.9-2.6
				c0.4-1.6,2.1-1.9,1.9-3.8c0.4-1,1.1-0.9,1.7-0.9c0.7,0.1,1.4,0.1,1.8-1l0,0c2-0.5,3.8-1.4,5-3.6l-0.1,0c2-0.2,3.9-0.8,5-3.2
				c4.6-3.2,9.2-6.5,13.8-9.6c3.4-2.3,6.5-5.3,10.5-5.9c0.7,1.7-0.3,3-0.5,5c11.1-9.7,23.2-16.8,35.7-23.1c0.7,3.4-3.1,2.6-3.3,5.2
				c-0.3,0.1-0.6,0.3-0.9,0.4c0.1,0.1,0.2,0.3,0.2,0.3c0.3-0.2,0.5-0.4,0.8-0.6c0.9,0.1,1.7-1.1,3-0.1c-6,4-11.7,7.8-17.4,11.6
				c-0.9,0.3-1.6,0.8-2.1,1.8c-0.3,0.2-0.5,0.4-0.8,0.6c0.5,0.7,0.8,0.1,1.1-0.3c0.9-0.1,1.7-0.7,2.2-1.7c5-1.4,9.3-5,14.1-7
				c0.9-0.4,1.9-2.2,2.6-0.4c0.6,1.5-0.9,2.1-1.7,2.9c-2.5,2.4-5.5,3.3-8.2,5.3c-0.7,0.5-1.4,1.1-2,1.7c-0.1,0.1-0.2,0.1-0.2,0.2
				c0,0,0,0.2,0,0.2c0.1-0.1,0.2-0.3,0.3-0.4c4.4,0.8,7.9-2.1,11.9-3.8c-6.6,7.2-15.4,9.8-22.2,16.9c7.4-4.5,15.3-7.6,22.9-13.1
				c-0.2,4.8-4.1,4.3-5.5,6.9c1.8,1.3,3-1.6,5.3-0.8c-4.7,4.3-10.2,5.7-13.9,10.8c-0.6,0.1-1.1,0.3-1.4,1c-0.3,0.2-0.6,0.3-0.9,0.5
				c0.1,0.1,0.2,0.3,0.2,0.3c0.3-0.2,0.6-0.4,0.8-0.6c0.5-0.3,0.9-0.6,1.4-0.9c4.5-2.4,9-4.8,13.5-7.2c0.2,0.3,0.3,0.7,0.5,1
				c-4.5,5.6-11.2,6.7-16.1,11.5c-0.6,0-1.1,0.2-1.4,0.9c-1.2,0.4-2.3,0.8-3.5,2.8c1.7-0.8,3-1,3.5-2.8c0.6,0,1.1-0.1,1.4-0.9
				c4.5-0.6,8.2-4.4,12.5-5.7c0.7-0.2,1.2-0.8,2.1-0.3c-1,2.6-4,2-4.9,4.8c-0.4,0.4-0.9,0.7-1.3,1.1c-0.1,0.2-0.2,0.4-0.3,0.5
				c0.1-0.1,0.3-0.2,0.4-0.3c0.5-0.3,1-0.5,1.5-0.8c1.2-0.6,2.4-1.2,3.7-1.7c0.8-0.3,1.7-1.9,2.4-0.3c0.5,1.1,0.5,2.7-0.5,3.7
				c-0.8,0.9-1.7,1.6-2.6,2.3c-6.7,4.7-13.5,9.3-20.2,13.9c-0.6,0.4-1.3,0.8-1,2.4c3.9-1.3,7-4.6,10.7-6.5c3.3-1.7,6.3-4.2,9.5-6.1
				c1.3-0.8,3.2-3.2,4.1-0.3c0.8,2.4,1.1,5.8-1.7,7.4c-3.1,1.9-6.2,3.6-9.3,5.5c-5.8,3.6-11.7,7.2-17.5,10.8c-0.7,0.5-1.5,0.9-1.8,2
				l0,0c-4.4,0.8-8.2,3.4-11.4,7.2l0,0c-6.3,1.6-11.1,7-16.8,10.2c-3.8,2.1-7.8,4.2-11,7.9l0,0c-1.6,0.2-3.2,0.2-3.6,2.7l0,0
				c-1.1-0.3-2.1-0.1-3.1,0.6c-6,4.6-12.7,7.5-19,11.3c-11.1,6.6-21.4,15.2-33,20.7c-2.5,1.2-5.6,2.2-6.9,6.1l0,0
				c-3.4-0.6-2.1-3.1-1.1-5c0.8-1.5,2.2-2.5,3.4-3.8c5.9-3,11.3-7,16.4-11.7c4.5-1.7,8.7-4.2,12.6-7.4c0.6,0,1.2-0.1,1.5-0.8
				c6.2-3.7,12-8.4,17.5-13.7c-5.9,2-10.5,7.7-16.7,8.2c-0.6-2.4,1.8-3.6,1.8-6.5c-3.2,2.8-6,5.1-8.8,7.5c-0.7,0.6-1.1,1.5-0.8,2.3
				c1.7,4.7-0.9,5.8-3.5,7.2c-1.4,0.7-2.6,2-3.8,3.1c-5.8,3.1-11.3,6.9-16.4,11.7c-1.1,0.4-2.3,0.7-3.4,1.1l-0.1-0.1
				c0-4.3,0.1-8.5-0.1-12.8c-0.1-2.6,0.4-4.9,1.6-6.9c1,0,1.7-0.7,2.2-1.7c3.7-1.2,6.6-4,9.3-7.2c0.8-0.3,2,0.1,2.1-1.8
				c-1.1-0.2-1.7,0.5-2.3,1.5c-3.4,1.8-6.7,3.6-9.2,7.2c-1,0.1-1.7,0.7-2.1,1.8c-1,0.2-2,0.8-2-1.6c0-3.9-0.2-7.7,2.3-10.7
				c1.4-0.5,3-0.6,3.5-2.8c0.8,0,1.6,0,2.1-0.9c1.1-0.3,2.1-0.7,2.6-2.4c-1.6-0.1-2.4,0.5-2.9,2.1c-0.7,0.2-1.6,0.1-2,1
				C289.7,350.1,288.1,350.1,287.4,352.2z M350.2,338c0.2-0.3,0.4-0.6,0.7-1c0.3-0.3,0.5-0.5,0.8-0.8c0.2-0.3,0.5-0.6,0.7-0.9
				c1.3-0.3,2.2-1.3,2.8-2.8c1,0.1,1.7-0.7,2.2-1.7c3.4-1.8,6.9-3.5,10-6.3c4-1.4,7.3-4.6,11-6.8c2.2-1.3,4.6-2.1,6.1-4.8
				c0.4-0.4,0.9-0.7,1.3-1.1c1.3-0.3,2.4-0.8,3-2.5c1-0.5,2-1,2.7-2.1c0.2-0.3,0.5-0.6,0.7-0.9c1.1-0.3,2.1-0.6,2.3-2.7
				c-1.1,0.8-2,1.3-2.3,2.7c-0.2,0.3-0.5,0.6-0.7,0.9c-1.3-0.3-2.2,0.5-2.9,1.7c-1.2,0.5-2.4,0.9-2.8,2.8c-0.5,0.3-1,0.6-1.4,0.9
				c-5.9,3.5-12,6.4-17.2,11.5c-3.5,1.6-6.9,3.5-9.8,6.5c-1,0.2-1.7,0.7-2.1,1.9c-1.4,0.1-2.2,1.3-2.9,2.6c-0.2,0.3-0.5,0.6-0.7,0.9
				c-0.2,0.3-0.4,0.7-0.6,1c-0.3,0.3-0.6,0.5-0.8,0.8c-0.2,0.3-0.5,0.6-0.7,0.9c-0.3,0.1-0.6,0.3-0.9,0.4c0.1,0.2,0.2,0.3,0.3,0.5
				c0.2-0.3,0.5-0.5,0.7-0.8C349.7,338.6,349.9,338.3,350.2,338z M341.6,346.9c0.1-0.1,0.2-0.1,0.3-0.2c0,0,0-0.2,0-0.3
				C341.8,346.6,341.7,346.8,341.6,346.9c-0.3,0.2-0.5,0.5-0.8,0.8c-0.7,0-1.5-0.1-1.8,1c0,0.1,0.2,0.6,0.3,0.6
				c0.8,0.1,1.2-0.6,1.6-1.4C341.2,347.6,341.4,347.2,341.6,346.9z M380.6,280.1c-0.1,0.2-0.4,0.5-0.3,0.5c0.3,0.5,0.4,0.1,0.6-0.2
				c0.2-0.3,0.5-0.6,0.7-0.8c0.8-0.2,1.3-0.7,1.4-1.8c0.5-0.3,0.9-0.6,1.4-0.9c0.5-0.2,1.1-0.4,1.1-1.3c0-0.1-0.1-0.3-0.2-0.3
				c-0.7-0.1-0.9,0.5-1.1,1.2c-0.4,0.3-0.9,0.7-1.3,1c-0.8,0.1-1.4,0.6-1.5,1.7C381,279.4,380.8,279.7,380.6,280.1z M313.3,349.8
				c0.3-0.2,0.6-0.3,0.8-0.5c-0.1-0.2-0.2-0.3-0.3-0.5c-0.2,0.2-0.5,0.5-0.7,0.7c-0.3,0.3-0.5,0.5-0.8,0.8c-0.7,0.3-1.2,0.9-1.4,1.8
				c-1.2,0.3-1.8,1.3-2.2,2.6c-5.9,4.6-10.6,10.9-15.6,16.8c6-4.5,11.4-9.8,15.9-16.5c1.1-0.4,1.9-1.1,2.2-2.7
				c0.8-0.2,1.3-0.7,1.5-1.7C312.9,350.5,313.1,350.1,313.3,349.8z M384.2,321.5c-0.5,0.3-0.9,0.6-1.4,1c-1.7,0.2-3.2,0.9-4.3,2.7
				c-0.5,0.3-1,0.6-1.4,0.9c-3.1,1.4-5.9,3.3-8.1,6.4c3.1-1.5,6.2-2.7,8.4-6c0.5-0.3,0.9-0.7,1.4-1c1.7-0.3,3.2-1,4.2-2.8
				c0.5-0.3,1-0.6,1.4-0.9c0.5-0.3,1-0.6,1.4-0.9c1.5-0.3,3-0.5,3.6-2.7c1.8,0,3.4-0.3,4.3-2.6c1-0.4,2.5,0.2,2.9-1.9
				c-1.4-0.3-2.3,0.7-3.2,1.5c-1.5,0.6-3,1.4-4.2,2.8c-1.4,0.3-2.7,1.1-3.7,2.6C385.1,320.9,384.7,321.2,384.2,321.5z M342.2,332.3
				c-0.5,0.3-0.9,0.7-1.4,1c-0.1,0.2-0.2,0.4-0.3,0.6c0.2-0.1,0.3-0.2,0.5-0.3c0.5-0.3,0.9-0.6,1.4-1c0.1-0.2,0.2-0.4,0.3-0.6
				C342.5,332.1,342.4,332.2,342.2,332.3z M344.6,330.9c0.7-0.3,1.3-0.8,1.5-1.8c1.2,0,2.1-0.7,2.8-1.9c5.6-3.9,11.4-7.3,15.7-13.4
				c1.2-0.5,2.3-1.1,2.8-2.8c5.2-2.7,9.3-7.5,13.9-11.5c3.5-3,7.4-5.2,10.3-9.2c2.3-0.7,4.2-2.1,5.8-4.4c0.3-0.2,1-0.2,0.7-0.8
				c-0.2-0.5-0.7,0-1,0.4c-2.2,0.9-4,2.5-5.7,4.5c-8.7,5.7-16.8,12.6-24.2,20.7c-1.2,0.4-2.2,1.3-2.9,2.7
				c-5.4,4.3-10.9,8.2-15.7,13.4c-1.1,0.2-2.2,0.6-2.7,2c-0.8,0.1-1.3,0.6-1.6,1.6c-0.1,0.2-0.1,0.4-0.2,0.7
				C344.2,331.1,344.4,331,344.6,330.9z M320.9,323.4c-0.9,0.2-1.7,0.7-2.1,1.9c-0.9,0.1-2.1-0.4-2.3,1.5c1,0.1,1.7-0.6,2.3-1.5
				c1-0.1,1.7-0.6,2.2-1.7c0.1-0.2,0.2-0.4,0.3-0.5C321.2,323.2,321,323.3,320.9,323.4z M330.2,317.2c0.7-0.1,1.5,0.2,1.8-0.9
				c0-0.1-0.1-0.3-0.2-0.4C331,315.7,330.6,316.4,330.2,317.2c-0.5,0.2-1,0.5-1.5,0.8c-1.2,0.5-2.5,0.7-3.1,2.7
				c1.7,0.1,2.5-1.2,3.3-2.4C329.5,318.1,330,318,330.2,317.2z M298.3,337.1c1.1-0.1,2.1-0.3,3-1.6c-1.4-0.4-2.3,0.5-3.1,1.4
				c-0.3,0.2-0.6,0.4-0.9,0.6c0.1,0.1,0.2,0.3,0.2,0.3C297.7,337.6,298,337.3,298.3,337.1z M378.5,281.9c-1,0.4-1.8,0.9-1.8,2.6
				c1.3,0,1.8-1,2.1-2.1c0.1-0.2,0.3-0.5,0.3-0.6C378.9,281.2,378.7,281.6,378.5,281.9z M342.5,321.9c1.6-0.1,2.6-1.2,3.5-2.7
				c0.2-0.3,0.5-0.6,0.7-0.9c4.6-2.7,8.5-6.3,11.4-11.7c2.7-2.9,5.2-6.1,7.2-9.8c0.5-0.3,1-0.6,1-1.5c0-0.1-0.1-0.3-0.2-0.3
				c-0.7-0.1-0.9,0.6-1.1,1.2c-3.1,2.5-5.8,5.4-7.3,9.8c-3.9,3.7-8.1,6.9-11.3,11.8c-0.2,0.3-0.5,0.6-0.7,0.9
				c-1.5,0.2-2.6,1.4-3.5,2.8c-0.8,0.2-1.3,0.7-1.5,1.8c-2.7,0.8-4.7,2.8-6.3,5.5c-0.6,0-1.1,0.2-1.5,0.9c-1.5,0.4-2.5,1.6-3.1,3.4
				c-2.7,1.4-5.5,2.8-7.1,6.3c-2.9,1.2-4.8,3.9-6.6,6.8c2.8-1.3,5-3.6,7-6.4c2.4-2.1,4.8-4.2,7.1-6.3c1.4-0.6,2.5-1.6,2.9-3.5
				c0.6-0.1,1.1-0.3,1.3-1.1c2.7-0.7,4.5-3.3,6.4-5.4C341.7,323.4,342.3,322.9,342.5,321.9z M314.4,327.8c-4.2,1.4-7.7,4.3-11.4,7
				c4.2-1.4,8.2-3.1,11.6-6.7c0.1-0.2,0.2-0.4,0.3-0.5C314.8,327.7,314.6,327.8,314.4,327.8z M308.1,342.6c0-2.2-0.4-4-2.5-3.7
				c-2,0.2-3.7,1.4-3.8,4.3c0,2,0.4,4.6,2.5,4.4C306.4,347.2,308.1,345.7,308.1,342.6z M394.7,274.6c-2.3,1.7-5.2,2.1-7.7,5.9
				C390.6,279.2,392.9,277.3,394.7,274.6z M376,285.1c-2.5,0.8-3.5,2.5-4.2,4.5C373.6,289,374.8,287.6,376,285.1z M367.6,294.2
				c1.4-0.6,2.7-1.3,3.3-4.1C368.9,291,368,292.2,367.6,294.2z M323.6,322.7c0.3-0.4,0.5-0.7,0.7-1c-0.2-0.2-0.5-0.6-0.7-0.5
				c-0.3,0.1-0.5,0.5-0.7,0.8C323.1,322.2,323.3,322.4,323.6,322.7z M347,342.2c0.2-0.3,0.6-0.7,0.6-1c0-0.6-0.5-0.6-0.7-0.3
				c-0.2,0.2-0.3,0.7-0.5,1C346.5,342,346.7,342.1,347,342.2z M412.8,294.9c-0.1,0.1-0.2,0.1-0.3,0.2c0,0.1,0.1,0.2,0.1,0.3
				c0.1-0.1,0.3-0.3,0.4-0.4C413,295,412.9,294.9,412.8,294.9z M416.4,258c-0.1,0-0.2,0-0.3,0.1c0,0,0,0.2,0.1,0.3
				c0.1,0,0.2-0.1,0.3-0.1C416.5,258.3,416.5,258.1,416.4,258z"/>
			<path class="st1" d="M390.6,237.7c4.1-0.6,7.5-3.6,11.1-5.7c8.8-5.2,17.5-10.5,26-16.5c2.1-1.5,4.5-2.4,7.3-3.9
				c0.3,3.3,0.8,5.8-2.4,7.6c-9.9,5.7-19.6,11.8-29.4,17.8c-14.2,8.7-28.3,17.3-42.4,26.3c-2.9,1.8-3.2,0.6-3.1-2.6
				c0.1-4.5,0-9.1-0.5-13.6c-1.4,3.9-1.2,8.1-0.8,12c0.4,5.1-1,7.7-4.7,9.8c-18.4,10.7-36.7,21.7-55,32.6c-2.8,1.7-5.6,3.3-8.2,5.2
				c-2.4,1.8-2.5,0.2-2.5-2.2c0-3.1,1.7-4.6,3.5-5.6c12-7,24.2-13.8,35.8-21.9c9.3-6.5,18.6-13,27.9-19.6c0.8-0.5,1.7-1,1.8-2.5
				c-1.3-0.7-1.9,0.8-2.8,1.4c-16.5,10.2-31.9,22.9-48.7,32.4c-4.7,2.7-9.6,5.1-14.3,7.8c-2.4,1.4-3,0-3.3-2.9
				c-0.4-4.8,0.6-7.7,4.4-9.7c9.9-5.1,19.2-11.4,27.4-20.3c5.6-6.1,10.9-12.8,16.9-18.4c1.8-1.7,4.2-2.1,5.4-4.8
				c0.7-0.2,1.5-0.2,2-1c3.6-1.3,7.1-3,10.2-5.7c-3.1,0.4-8.3,3.3-10.4,5.4c-0.8,0.1-1.6,0.1-2.1,1c-6.9,2.8-11.6,9.6-17,15.2
				c-10.1,10.5-20.3,20.7-32.6,26.6c-1.3,0.6-3,3.1-4.2,0.2c-1.2-2.9,0.1-6.8,2.3-7.9c6.1-3,11.8-6.9,17.3-11.5
				c-3.6,1.7-7.2,3.3-10.7,5.1c-1.6,0.8-3.1,2.2-4.8,2.9c-1.3,0.5-3.3,2.8-4.1,0.2c-0.8-2.5-1.5-5.4,2-7.4
				c18.3-10.6,36.3-21.7,54.5-32.6c5-3,10.2-5.5,15.1-9c2.2-1.6,2.9-1.4,3,2.2c0.2,8.6-0.7,17.3,1.4,25.9c0-8.2,0.2-16.4-0.1-24.6
				c-0.1-4.1,0.7-6.2,3.9-8.1c16.7-9.6,33.2-19.6,49.8-29.4c5.2-3.1,10.4-6.4,15.7-9.2c1-0.5,2.8-3.1,3.8,0.1c0.7,2.4,0.2,4.6-2,5.8
				c-3.6,2-7.1,4.2-10.5,6.4c-12,7.8-24,15.6-35.9,23.4c-0.3,0.2-0.6,0.5-0.9,0.7c0.2,0.4,0.3,0.8,0.5,1.2c3.8-2.3,7.7-4.5,11.4-6.9
				c9.4-6.3,18.7-12.9,28.6-17.9c2.4-1.2,4.6-3,6.9-4.5c0.7-0.4,1.5-0.8,1.9,0.2c0.6,1.4-0.4,1.7-1.2,2.1c-1.2,0.6-2.4,1.2-3.7,1.9
				c0.4,0.3,0.6,0.5,0.8,0.5c1.5,0.1,3.1-2.5,4.3-0.2c1.3,2.6-0.1,7.4-2.4,8.6c-7.6,4.1-14.9,9.1-23,11.8c-1.4,0.5-2.7,1.6-4.2,2.5
				c1.3,1.2,2.1,0.2,2.9-0.1c7.6-3.3,15.1-7,22.5-11c1.2-0.6,3.3-3.1,4.1-0.1c0.7,2.3,1,5.4-1.9,7.2c-12.6,7.8-25.2,15.9-37.8,23.8
				c-1.7,1.1-3.3,2.2-5,3.4c-1.1,0.1-2.2,0.5-2.8,1.8c-3.7,0.4-6.8,3-10.1,4.9c-0.6,0.3-1.3,0.9-0.8,2c0.3,0.6,0.9,0.5,1.3,0.1
				c2.8-3.4,6.9-3.6,9.9-6.6C388.9,239.3,389.9,238.9,390.6,237.7z M380.6,227.7c3.6-1,6.9-2.7,10-5.4c0.7-0.2,1.6-0.1,2.1-0.9
				c4-1.5,7.9-3.2,11.3-6.2c-4,1.5-8.2,2.4-11.6,5.9c-0.7,0.2-1.5,0.1-2,1c-3.7,0.7-6.9,2.9-10,5.3c-1.5,0.5-3.4,0.5-4.2,3.7
				C378,229.7,379.3,228.7,380.6,227.7z M366.9,241.5c0.3,0.9-0.5,3,1.4,3c1.7,0,1.9-1.9,2-3.5c0.1-1.5,0-3.2-1.6-3.3
				C367,237.6,366.9,239.5,366.9,241.5z M379.1,220c1.8-1.2,4-1.3,6-4.4C382.3,216.9,380.2,217.3,379.1,220z M354.2,232.7
				c0.1-0.1,0.2-0.2,0.3-0.2c-0.1-0.1-0.2-0.3-0.2-0.3c-0.1,0.1-0.2,0.3-0.3,0.4C354,232.7,354.1,232.7,354.2,232.7z"/>
			<path class="st1" d="M446.8,375c0,0,0-0.1,0-0.1c0-1-0.1-1.8-0.1-2.3c0-1,0-1.7,0-1.9c0-3-0.2-38.9,0-69.3
				c0.2-29,0.7-24.3,0.4-30.9c-0.6-13.8-0.3-27.6-0.4-41.4c-0.1-6.9,0-6.9,5.5-9.7c0.7,10.2,1,20.5,0.9,31c1.9-0.6,1.3-2.1,1.3-3.1
				c0.1-8.7,0.1-17.4,0.1-26.1c0-2.8,2.6-6.1,4.7-6c1.4,0,1,1.4,1,2.3c0.1,3.4,0,6.9,0,10.4c0,12-0.1,133.5-0.1,139.7
				c0,0.8,0,1.6,0,1.6c0,1.1-0.2,1.5,0,1.7c0.3,0.2,1-0.1,1.3-0.7c0.2-0.4,0-0.8,0-1.7c0-0.9,0.1-1.5,0.1-1.6
				c0.1-1.9-5.3-132.9,0.1-149.2c1-2.9,4-7.4,5.6-7.7c1.5-0.3,1.5,0.7,1.6,2c0.2,5.7,0.5,11.4,0.6,17c0,11.6,0,59.7,0,86.4l0,0
				c1.8,26.3-0.1,45.4,0.1,47.3c0,0.1,0,0.5,0.1,1c0,0.5,0,1,0,1.3c0,0-0.1,1-1,2.3c-1.7,2.2-18.4,13.5-21.4,9.7
				C446.9,376.6,446.6,376,446.8,375z M455.5,372.1c0,0,0-1,0-1.1c0-0.3,0-38.9,0-52.8c-1,28.9-1.5,50-1.4,51.9
				c0.1,1.3,0.1,2.6,0.1,2.8l0,0 M452.6,302.6c0.4,0,0.7,0,1.1-0.1c0-11.9,0-23.7,0-35.6c0-0.8-0.4-1.5-1.1-1.3
				c-0.9,0.2-0.9,1.3-0.9,2.2C451.8,279.4,451.2,291,452.6,302.6z M467.5,366.3c0-0.1,0-0.2,0-0.3c0-0.3,0-0.7,0-1.2
				c0-0.7-0.1-1-0.2-1.1c-0.2-0.2-0.5-0.4-0.8-0.4c-0.5,0-0.8,0.4-0.8,0.5c-0.1,0.2-0.2,0.4-0.2,1.1c0,1,0,1.4,0.2,1.7
				c0.2,0.3,0.6,0.4,1,0.4C467.1,366.8,467.4,366.6,467.5,366.3z"/>
			<path class="st1" d="M411.5,357.1c3.8-0.9,6.8-3.9,10.4-5.4c-4.5,6.3-11.2,8.4-16.7,12.7c6.1-1.4,11.6-4.8,16.8-8.8
				c-0.3,3.2-0.9,4-4.4,6.2c-2,1.2-4,2.5-5.9,4c-1.4,1.1-1,1.8,0.5,1.9c1,1.1,2.7-0.9,3.5,1c-9.6,7.3-19.6,13.8-29.7,19.8
				c-8.1,4.8-16.3,9.7-24.3,14.7c-6.7,4.1-13.3,8.3-19.9,12.6c-1.2,0.8-2.3,1.6-3.6,1.6l-0.2-0.3c0.3-0.6,0.5-1.1,0.8-1.7
				c0.6,0,1.1-0.1,1.4-0.9c0.4-0.2,0.8-0.4,1.2-0.6c-0.1-0.2-0.2-0.4-0.3-0.6c-0.3,0.4-0.6,0.8-0.9,1.2c-0.6,0-1.1,0.1-1.4,0.9
				c-1,0-1.8,0.5-2.2,1.8l0,0c-0.7,0.1-1.6-0.2-1.7,1c-0.1,0.7,0.6,0.7,1,0.9l0,0c-3.8,3.9-8.4,6-12.8,8.5
				c-12.1,6.9-23.7,14.9-35.6,22.4c-0.5,0.3-1,0.6-1.8,1.1c0-4.5-0.2-8.6,0.1-12.8c0.1-2.1,2-2.8,3.3-3.6
				c9.7-6.2,19.5-12.3,29.2-18.4c5-3.2,10.1-6.4,15.1-9.6c-0.1-0.4-0.3-0.8-0.4-1.2c-2.7,1.5-5.5,2.9-8.1,4.5
				c-11.8,7.3-23.6,14.6-35.4,21.9c-4,2.4-4,2.3-4.1-3.1c0-3.4-0.3-6.9,2.3-9.2c7.5-3.4,14.4-8.5,21.4-13.4
				c-7.4,4-15.1,6.8-21.8,12.8c-1.4,0.3-1.9-0.5-1.9-2.2c0-1.6,0-3.3,0-4.9c0.7,0.4,1.4,0.1,2-0.3c6.8-4.1,13.7-8,20.4-12.3
				c1.8-1.2,4.1-1.6,5.4-4.1c9.2-5.8,18.5-11.5,27.7-17.3c2.4,1.1,4.1,0.4,4.9-2.8l0,0c1.2-0.1,2.7,0.6,2.8-1.9l0,0.1
				c0.6,0,1.2-0.1,1.5-1l-0.1,0c0.7,0.1,1.2-0.1,1.5-1l0,0.1c0.3-0.3,0.5-0.6,0.8-0.9l0,0c0.8,0,1.7,0.1,2.2-1l-0.1,0.1
				c0.3-0.3,0.5-0.6,0.8-0.8c0-0.3,0-0.6,0-0.9l0,0c0.2,0,0.4-0.1,0.7-0.1c3.5-2,7.2-3.6,10.6-5.9c15-10.2,30.5-19.4,45.8-29.1
				c0.3,0.7,0.4,0.3,0.6-0.2l-0.1,0c3.7,0.5,6.4-2.3,9.7-4.3c0.8,3.8-3.2,3.5-2.9,6.5c1.1,1.1,1.7-1.4,3.5-0.1
				c-4.2,6.4-10.7,7.8-15.6,12.4c2.5,0.3,6.5-1.7,11.7-5.6c0.5-0.4,0.9-0.9,1.4-1.3c0.6-0.5,1.3-1,1.8,0.1c0.4,0.8,0,1.5-0.4,2
				c-1.4,1.7-3,2.9-4.7,4c-5.6,3.5-11.1,7.3-16.5,11.4c7.7-1.8,14.1-8.3,22.4-11.5c-3.3,6.1-8.8,6.2-11.9,10.6
				c-0.5,0.3-0.9,0.6-1.4,0.8C410.4,358.1,410.9,357.5,411.5,357.1z M377.2,365.9c0.6,0,1.1-0.2,1.5-0.8c0.6,0,1.1-0.2,1.4-1
				c0.3-0.1,0.6-0.2,0.9-0.3c-0.1-0.2-0.2-0.3-0.2-0.5c-0.2,0.2-0.5,0.4-0.7,0.7c-0.6,0-1.1,0.2-1.4,0.9
				C378,364.9,377.4,365.1,377.2,365.9c-0.5,0.2-1,0.5-1.5,0.8c-1,0.1-1.9,0.2-2.2,1.7c-0.4,0.1-0.8,0.3-1.3,0.4
				c0.1,0.2,0.2,0.5,0.3,0.5c0.4-0.2,0.8-0.4,1.1-0.6c1-0.1,1.7-0.7,2.2-1.7C376.5,366.8,377,366.6,377.2,365.9z M398.6,353.4
				c1.6-0.5,3-1.3,4.2-2.8c1.4,0,2.6-0.5,3.6-2.4c-2-0.2-2.9,0.9-3.7,2.2c-1.7,0.3-3.2,0.8-4.3,2.6c-0.5,0.3-0.9,0.7-1.4,1
				c-3.1,0.2-5.6,2-7.8,4.5c-2.6,0.4-4.8,1.8-6.6,4.1c2.6-0.3,4.8-1.8,6.8-3.9c2.9-0.8,5.4-2.4,7.8-4.5
				C397.6,353.9,398.1,353.6,398.6,353.4z M338.9,406.5c5.4-2.2,10.5-5.2,15.2-9.2c-2.2,0.5-4.2,1.5-6.2,2.8c-3.1,2-6.7,2.7-9.2,6.1
				c-0.3,0.2-0.6,0.4-0.8,0.6c0.1,0.1,0.2,0.3,0.2,0.3C338.3,406.9,338.6,406.7,338.9,406.5z M340.4,391.8
				c9.1-3.8,17.3-9.8,25.8-15.4C357,380.1,348.6,385.7,340.4,391.8z M392.8,368.2c-0.2-1.6,0.4-4.3-1.7-3.7c-2,0.6-4.7,1.5-4.5,5.2
				c0.1,1.8,0.1,5,2.3,4.6C391.2,374,393.4,372.3,392.8,368.2z M319.4,400.1c-0.6-2.2-2-1.9-3-1.8c-2,0.2-3.1,1.9-3.2,4.3
				c-0.1,1.3,0.5,1.8,1.6,1.3C316.5,403.2,318.3,402.3,319.4,400.1z M410.2,367.5c-3.6,0.6-5.6,2.9-8,3.9c-0.6,0.2-0.9,1-0.6,1.8
				c0.1,0.2,0.7,0.5,0.9,0.3C404.7,371.4,407.7,371,410.2,367.5z M373.9,371.9c2.7,1.4,4-1.1,5.9-1.9c-0.2-0.4-0.4-0.9-0.5-1.3
				C377.5,369.7,375.7,370.8,373.9,371.9z M367.6,380.4c-1.2,1.9-3.2,1-3,3.6c0,0.4,0.6,1.1,0.9,1.1
				C367,384.9,367.6,383.6,367.6,380.4z M404.2,365.4c-1.8-0.7-2.6,0.1-3.4,1.7C402.3,367.7,403,366.7,404.2,365.4z M311.3,405.4
				c0.3-0.4,0.5-0.8,0.7-1.1c-0.2-0.2-0.5-0.5-0.7-0.5c-0.3,0.1-0.5,0.5-0.7,0.8C310.8,404.8,311,405.1,311.3,405.4z M418.1,335.6
				c-0.1-0.1-0.2-0.3-0.2-0.3c-0.2,0.1-0.3,0.2-0.5,0.3c0.1,0.1,0.2,0.3,0.2,0.3C417.8,335.9,417.9,335.8,418.1,335.6z M343,412.1
				c-0.1,0.1-0.2,0.1-0.2,0.2c0,0.1,0.1,0.2,0.1,0.3c0.1-0.1,0.2-0.2,0.3-0.3C343.2,412.1,343.1,412.1,343,412.1z"/>
			<path class="st1" d="M401,433.7c3.5,0.1,6.2-2.3,9.2-3.8c7.5-3.9,14.9-8,22.5-12c1,8.8,0.9,8.7-5.3,12.5
				c-17.7,11.1-36.2,20.6-54,31.4c-3,1.8-6.2,3.4-8.8,6c-0.3,0.2-0.6,0.4-0.8,0.7c-1.9,0.7-3.8,1.2-5,3.2c-3.6,1.6-6.9,3.7-9.8,6.7
				c-6,2.1-11.3,6.1-17,8.8c-1.8,0.8-3.9,1.1-5.1,3.3c-4.4,1.6-8.6,3.9-12.3,6.9c4.8-0.8,8.8-3.3,12.6-6.5c7.9-2.9,15.2-6.9,22-12.3
				c3.7-1.4,7.1-3.6,10-6.4c1.8-0.8,3.6-1.5,4.9-3.3c0.2-0.3,0.5-0.5,0.7-0.8c5.6-1.9,10.4-5.6,15.7-8.4
				c10.8-5.8,21.2-12.4,31.9-18.3c5.2-2.8,10.6-5.2,15.3-9.1c1.4-1.1,3.1-1.8,4.7-2.7c1,2.7,0.2,4-1.6,5.3
				c-11.2,7.5-23.1,13.2-34.5,20.1c-16.5,10-33.3,19.4-49.9,29.2c-17.1,10.2-34.5,19.5-51.8,29.3c-3,1.7-5.8,3.6-9.1,4.6
				c-0.6,0.2-1.2,0.5-1.6-0.2c-0.4-0.6,0-1.3,0.3-1.9c0.7-1.7,2.2-2.4,3.5-3.2c3.3-2,6.9-3.5,9.6-6.7c-4.7,0.8-8.4,4.7-13,6
				l-0.2-0.3c0-2,1-3.2,2.5-4c2.5-1.4,5.1-3,7.6-4.5c0.8-0.5,2.2-0.9,1.7-2.2c-0.5-1.4-1.7-0.3-2.4,0.1c-3.2,1.8-6.4,3.6-9.7,5.5
				c-0.8-2.9,0.9-4.1,2.4-5.2c2.2-1.6,4.5-2.9,6.7-4.5c0.8-0.6,2.3-1.3,1.5-2.7c-0.7-1.2-1.6,0.1-2.4,0.6c-1.6,1-3.1,2-4.7,2.8
				c-1,0.5-2.2,1.8-3-0.2c-0.6-1.6-0.3-3.1,1.3-4.1c6.8-3.9,13.4-8.1,20.2-11.8c10.9-5.9,21.9-11.6,32.8-17.4c0.9-0.5,2-0.8,2.4-2.2
				l0,0c6.6-1.7,12.8-4.8,18.5-9l0,0c2.8,0.1,5-1.5,7.1-3.3l0,0c0.6-0.1,1.2-0.1,1.5-0.8l0,0c0.6,0,1.2-0.1,1.5-0.8l0,0
				c0.6,0,1.2-0.1,1.4-0.8l0,0c3.9-0.7,7.4-2.4,10.7-4.9l0,0c3.3-0.8,6.4-2.1,9.3-4.1l0,0c0.6-0.1,1.2-0.1,1.5-0.8l0,0
				C395.7,437.4,398.7,436.5,401,433.7L401,433.7z M311.9,486.6c-0.3,0.2-0.6,0.3-0.9,0.5c0.1,0.1,0.2,0.3,0.2,0.3
				c0.3-0.2,0.6-0.4,0.9-0.6c0.3-0.2,0.5-0.5,0.8-0.7c0.5-0.3,0.9-0.6,1.4-0.9c1.5,0.1,2.8-0.6,4.1-1.3c8.5-5,17.4-9.3,26.2-13.6
				c0.8-0.4,1.9-0.4,2.1-2.2c-3.4,0.7-6.4,2.4-9.3,3.9c-7.8,4.2-16,7.4-23.2,13c-0.5,0.3-1,0.5-1.5,0.8
				C312.4,486.1,312.2,486.3,311.9,486.6z M312,498.9c-0.3,0.3-0.7,0.6-1,0.9c0.1,0.2,0.3,0.5,0.4,0.5c0.6,0,0.8-0.5,0.9-1
				c0.3-0.2,0.6-0.4,0.9-0.6C312.6,498,312.3,498.5,312,498.9z"/>
			<path class="st1" d="M411.1,420.8c5.3-2.3,10.1-5.8,15.2-8.5c1.1-0.6,2.1-1.4,3.2-1.7c1.1-0.3,2.6-2.8,3.4,0
				c0.5,1.8,1.1,4.1-1.5,5.5c-9.4,5.2-18.8,10.6-28.2,15.9c-0.8,0.5-1.8,0.6-2.2,1.8l0,0c-3.1,0.7-6,2.1-8.6,4.1l0,0
				c-0.6,0-1.2,0-1.5,0.8l0,0c-3.4,0.3-6.7,1.4-9.3,4.1l0,0c-4,0.4-7.4,2.5-10.7,4.9l0,0c-0.6-0.1-1.2,0.1-1.4,0.8l0,0
				c-0.6,0-1.2,0.1-1.5,0.8l0,0c-0.6-0.1-1.2,0-1.5,0.8l0,0c-2.8-0.2-5,1.5-7.1,3.3l0,0c-1.7-0.2-3.2,0.9-4.6,1.7
				c-4.6,2.5-9.8,3.7-13.9,7.3l0,0c-6.1,1.7-11.6,5.3-17.3,8.2c-12.7,6.5-25.3,13.4-37.9,20.2c-2.1,1.1-2.4,0.2-2.4-2
				c0-3,2.1-3.8,3.8-4.8c18.3-10.7,36.7-21.2,55.1-31.8c6.7-3.9,13.4-8.1,20-12.3c1.4-0.9,2.5-1.7,3.5,0.4c0.6,1.2,1.3,2.2,2.5,1.4
				c1.5-0.9,0.7-1.6-0.4-2.1c-0.4-0.2-1-0.2-0.9-1.2c3.2-3.3,7.4-4.9,11.1-7.3c15.4-10,31.5-18.4,47.3-27.6c1.3-0.7,2.4-1.7,3.7-2.3
				c1.1-0.5,2.5-2.7,3.6-0.5c0.9,1.9,1.5,4.3-1.1,5.9c-6.2,3.8-12.2,7.7-18.3,11.7c-1,0.6-2.3,0.9-2.7,2.4c-0.5,0.2-0.9,0.4-1.4,0.7
				c0.1,0.1,0.1,0.3,0.2,0.3C410.2,421.6,410.7,421.3,411.1,420.8z"/>
			<path class="st1" d="M281.5,270.8c0.9,1.6,0.7,3.4,0.7,5.2c0,9.8-0.1,19.5,0.1,29.2c0.1,3.3-0.9,5.3-3.1,6.9
				c-6.7,5-13.9,8.9-20.9,13.3c-2.3,1.5-4.7,2.9-7,4.5c-1.6,1.1-2.6,1.2-2.5-1.8c0.1-11.4,0-22.8,0-34.2c0-1.8,0.4-3.8,1.9-3.7
				c1.8,0.1,0.8,2.4,0.9,3.6c0.1,9.3,0,18.6,0.1,27.9c0,1.2-0.6,3.3,0.8,3.4c1.6,0.1,1.2-2.2,1.2-3.6c0-9.1,0-18.3-0.1-27.4
				c0-2.5,0.4-4,2.4-5.2c7.3-4.3,14.4-8.9,21.7-13.3c1.6-1,3-1.8,3.1-4.3C281.1,271.1,281.3,270.9,281.5,270.8z M277.3,308.9
				c0.3,0.2,0.7,0.3,1,0.5c0.1-0.4,0.4-0.7,0.4-1.2c1.3-9.5,0.7-19.1,0.4-28.6c0-0.7,0-1.7-0.9-1.5c-0.9,0.2-1,1.2-1,2.1
				C277.2,289.8,277.3,299.3,277.3,308.9z"/>
			<path class="st1" d="M465.9,164.4c0,10.1,0,19.6,0,29c0,1.3-0.7,3.7,0.9,3.8c1.6,0.1,1.1-2.2,1.1-3.6c-0.1-9.4,0.6-18.9-0.3-28.3
				c-0.3-2.9,1.9-3.3,2.9-5.1c1.4,1.5,1,3.2,1,4.8c0,10.5-0.1,20.9,0,31.4c0,2.3-0.7,3.7-2.2,4.6c-7.1,4.4-14.3,8.7-21.4,13.1
				c-1.6,1-2.1,0.2-2.1-1.8c0-11.2,0-22.5,0-33.7c0-1.5,0.3-2.6,1.4-3.3C453.3,171.8,459.3,168.3,465.9,164.4z"/>
			<path class="st1" d="M444.2,423.1c0.2-4.3-0.3-8.6-0.4-12.9c-0.1-4.9,0-9.8-0.1-14.6c0-0.3,0-1.1,0.6-1.9c0.3-0.4,0.7-0.7,1.3-1
				c5.3-2.8,10.5-5.6,15.7-8.6c2-1.1,2.4-0.5,2.4,1.8c-0.1,9.4-0.1,18.7,0,28.1c0,2.5-0.8,4.1-2.8,5.1c-4,2-5.9,3.3-6.4,3.6
				c-1.7,0.9-3.4,1.7-5.1,2.6c-2.5,1.3-3.4,1.8-4.1,1.5C444,426.3,444.1,424.1,444.2,423.1z"/>
			<path class="st1" d="M421.8,235.8c-0.9,0.9-1.7,1.8-2.6,2.4c-5.8,4-11.6,8.2-17.5,12c-9.9,6.4-19.9,12.5-29.8,18.7
				c-16.4,10.2-32.7,20.8-49.3,30.7c-11.6,6.9-23.1,14.4-34.6,21.6c-0.7,0.4-1.6,2-2.3,0.3c-0.5-1.2,0.3-2.2,1.2-2.8
				c2.8-1.8,5.6-3.7,8.5-5.5c5.7-3.5,10.2-9.3,16.2-12.5c8.8-4.7,17.2-10.8,26-15.4c14-7.4,27.6-16.1,41.2-24.6
				c12.5-7.8,24.8-16,37.7-22.8c1.1-0.6,2-2.1,3.1-3c0.4-0.3,1.1-0.3,1.7-0.2C421.4,234.7,421.6,235.3,421.8,235.8z"/>
			<path class="st1" d="M350.1,430.4c1.8,0.7-1.4,2.9,0.7,3.5c-12.5,10.5-26.4,17.9-39.8,26.4c-7.7,4.9-15.6,9.3-23.5,13.5
				c-2.6,1.4-2.5-0.1-2.3-2.4c5-1.8,9.1-6,13.8-8.6c9.2-5.1,17.9-11.8,27.2-16.6c0.3-0.3,0.6-0.6,0.9-0.9l0.2-0.1l0.2,0.1
				c2.4-0.2,5.2,0.7,6-3.6l0,0.1c0.6,0.1,1.2-0.1,1.5-1l-0.1,0.1c1.4,0.1,2.8-0.2,3.6-1.9l-0.1-0.1c1.3,0.3,2-0.5,2.2-2.1
				C343.8,434.9,347.1,433,350.1,430.4z"/>
			<path class="st1" d="M328.7,313.1c0.4,1.2-0.4,1.8-0.9,2.6c-0.8,1.4-0.7,2.4,0.8,2.9c-5.8,5.1-12.2,8.9-18.6,12.8
				c-8.1,5.1-16.3,10-24.3,15.5c-1.3-4.7-2-6.3,6.3-10.5c0.6-0.1,1.4,0.1,1.7-0.9l0,0c1.4,0.1,3.2,1.3,3.6-1.8l0,0
				c1.2,0,2.2-0.5,2.9-1.8l0,0c0.5,0,0.8-0.3,0.7-0.9l0,0c0.6,0.1,1.3,0.1,1.5-0.9l0,0c0.7,0.1,1.3,0.2,1.5-0.9l0,0
				c2,0.1,4.2,0.8,5-2.7l0,0c0.5-0.1,0.7-0.6,0.8-1.2C315.6,320.8,322.1,316.8,328.7,313.1z"/>
			<path class="st1" d="M387.3,269.6c0-1.6,0.5-3.2-0.2-4.7c10.6-7.4,21.4-14,32.4-20.1c0.7-0.4,1.8-1.9,2.4-0.3
				c0.6,1.4,0.1,2.8-1.2,3.7c-3.1,2.2-6.1,4.7-9.2,6.7c-7.6,4.9-15.2,9.7-22.9,14.4C388.3,269.6,387.7,269.5,387.3,269.6z"/>
			<path class="st1" d="M468.6,379c0,11,0,21.7,0,32.4c0,1.5-0.2,3-1.4,4c-0.5,0.4-0.9,1.1-1.5,0.7c-0.7-0.3-0.5-1.1-0.4-1.8
				c1.1-9.7,0.3-19.5,0.5-29.2C465.7,382.5,466.1,380.3,468.6,379z"/>
			<path class="st1" d="M440.3,395.1c0.4-0.5,0.8-1,1.2-1.5c0.3,11.1,0.5,22.2,0.8,33.2c0,1,0.3,2.5-1.1,2.5c-1.1,0-1-1.3-1-2.2
				C440.2,416.5,440.2,405.8,440.3,395.1z"/>
			<path class="st1" d="M356.7,356.9c-4.6,4.5-10.1,7.1-15.2,10.4c-15,9.6-30.2,18.8-45.4,28.1c-2.3,1.4-4.5,3.2-6.9,4.6
				c-0.9,0.5-2.1,1.9-3.1,0c-0.9-1.6-0.6-3.1,0.4-4.5c0.6-0.8,1.2-1.5,1-2.7l0,0c1.1,0.3,2.2,0.2,3.1-0.6c3.8-3.3,8.2-5.2,12.3-7.9
				c10.5-6.8,21-13.5,31.5-20.4c5-3.3,10.3-5.9,15-9.9l0,0c1.5-0.2,2.9-0.8,3.6-2.7l0,0c1,0.2,1.8-0.3,2.7-0.8
				c6.9-4.4,13.8-8.6,20.5-13.2c1.6-1.1,3.6-1.6,4.5-4l0,0c4.4-0.9,8.1-3.6,11.4-7.2l0,0c6.2-1.6,11.4-6.4,17-9.6
				c1.8-1,3.6-2.3,5.6-2.3l0.2,0.3c0,0.3-0.1,0.5-0.1,0.8c0,0.1-0.1,0.2-0.1,0.3c0-0.1,0.1-0.2,0.1-0.3c0.6,0,1.2-0.1,1.5-0.9l0,0
				c2.2,0.2,3.8-2.1,6.2-2.3c-0.8,3.1-2.6,4.4-4.4,5.6c-13.4,8.9-26.8,17.9-40.5,26.1c-5.4,3.3-10.7,6.8-16.1,10.2
				c-0.2-1.1,0.6-2.2-0.1-3.4c-2.6,0.9-4.9,2.2-7,4.2c-0.3,0.1-0.6,0.3-0.8,0.4c0.1,0.1,0.2,0.3,0.2,0.3c0.3-0.2,0.5-0.4,0.7-0.6
				C355.6,354.8,355.4,357.4,356.7,356.9z M365.7,348.6c-0.3,0.2-0.6,0.3-0.9,0.5c0.1,0.1,0.2,0.3,0.2,0.3c0.3-0.2,0.5-0.4,0.8-0.6
				c0.2-0.3,0.5-0.6,0.7-0.9c0.3-0.1,0.6-0.3,0.9-0.4c-0.1-0.1-0.2-0.3-0.2-0.3c-0.3,0.2-0.5,0.4-0.8,0.6
				C366.2,348.1,366,348.3,365.7,348.6z"/>
			<path class="st1" d="M431.6,377.7c-0.8,0.3-1.7-0.4-2-1.1c-0.1-0.2-0.1-0.5-0.1-1c0-0.8,0-1.5,0-2.4c0-0.4,0-0.8,0-1.1
				c0.1-3.6,0-4.8-0.1-10.1c0-2,0-4-1.1-4.7c-1.2-0.8-0.6-1.7-0.1-2.6c1.9-6.7,1.1-13.7,1.2-20.5c0.1-9.9,0.1-19.8,0.1-29.6
				c0-1.6-0.1-3.3,0.7-4.8c0.3,0,0.6,0,0.9,0c0.1-0.1,0.3-0.2,0.5-0.1c0.3,2.5-0.6,5.1,0.7,7.4c0,5.9,0,11.8,0,17.8
				c0,14.6-0.3,29.2,0.2,43.8c0,2.1-0.1,4.2-0.1,6.3c0,0.4,0,0.7,0,1.1c0,0.4,0,0.4,0,0.4C432.6,376.6,432.3,377.4,431.6,377.7z"/>
			<path class="st1" d="M427.9,300.6c-0.6-1.4-1.2-1.6-1.8-0.1c0-15.7-0.6-31.3,0.9-46.9C428.4,269.3,428.4,285,427.9,300.6z"/>
			<path class="st1" d="M430.4,278.2c-0.1-7.2-1.1-14.4,1-21.4c0.4-1.3,0.2-1.3-0.9-1.1c-1.3,0.2-0.8-1.4-0.8-2.3
				c-0.2-2.3-0.2-4.7,0-7.2c-1.3,4.7,4.9,5.1,3.3,10c-1.4,4.2,0.6,8.6-0.5,12.8l0,0c-1.2,1.6-1.1,3.9-0.5,5.3
				c0.9,2.1-0.2,2.8-0.9,3.8C430.8,278.1,430.6,278.1,430.4,278.2z"/>
			<path class="st1" d="M267.2,509.1c1.8-5.7-2.2-14.4,6.8-15.6c1.4,8.3,0.6,28.5-1.2,31.2c3-0.5,3.7-1.2,3.7-4.8
				c0.1-8,0.1-16,0.1-24c0-2.1,0.2-4.1,0.9-6c0.3-0.8,0.7-1.5,1.6-1.4c1,0.1,1,1.1,0.9,1.8c-0.2,10.3,0.6,20.6-0.6,30.9
				c-0.2,2-1.1,3.2-2.6,4c-9.1,5.2-18.2,10.4-27.2,15.6c-1.9,1.1-2.4,0.1-2.3-1.8c0.3-9.2-0.2-18.4-0.6-27.6c-0.1-1.9,0.6-3,2-3.8
				c5.2-2.9,10.4-5.8,15.4-8.9c2.2-1.4,2.3-0.4,2.3,1.7C266.5,503.2,266.1,506.2,267.2,509.1z M250.5,535.2c0.3,0,0.7,0,1,0
				c0-5.6,0-11.3,0-16.9c0-0.8-0.3-1.7-1.2-1.7c-0.8,0-0.8,0.9-0.8,1.5C249.5,523.9,249.5,529.6,250.5,535.2z"/>
		</g>
		<g id="Clair_1_">
			<path class="st1" d="M247.6,287.1c0.2,0.7,1.2,1.2,1.9,1.6c1.1,0.5,2-0.2,3-0.8c4.1-2.7,8.1-5.6,12.4-7.9
				c5.3-2.9,10.2-7.1,15.9-8.7c0.2-0.2,0.5-0.3,0.7-0.5c-0.1-4.7-2.2-4.1-4.6-2.8c-9.5,5.2-18.7,11.1-27.9,17.1
				C248.3,285.6,247.3,285.9,247.6,287.1z"/>
			<path class="st1" d="M436.7,376c0.1-0.1,0-0.2,0-1.1c0-0.6,0-0.8-0.1-1.4c0,0,0-0.6,0-1.6c0-1.5,0.1-3.7,0.1-4.3
				c0.5-8,11.3-61.4-0.2-109.2c-0.3-1.2-0.7-2.8-1.2-4.8c-0.9,4.6-0.3,9.1-0.8,13.4c0,18.2,0.2,36.5-0.2,54.7
				c-0.3,13.6-0.2,27.2-0.3,40.9c0,1.8-0.1,3.6-0.1,5.4c0,0.8,0,1.9,0,3.3c0,2.3,0,1.9,0,2.4c-0.1,0.8-0.1,1,0,1.3
				C434.2,376.2,436.2,376.6,436.7,376z M443.6,377c0-0.8,0-1.6,0-1.6c0-0.7,0-1.3,0-1.6c0-0.6,0-1,0.1-1
				c0.2-3.3-1.1-140.4-0.1-144.2c0-0.1,0.4-1.2-0.1-2.2c-0.1-0.3-0.4-0.6-0.8-0.9c-0.9,7.2-4.1,13.3-4.1,20.8
				c0,18.6-0.8,24.6,0.1,58c0.7,28.5,0,63.5,0,66.5c0,0.3,0,1.9,0,4c0,1,0,1.8,0.1,1.9"/>
			<path class="st1" d="M428.4,357.2c-1.2-0.8-0.6-1.7-0.1-2.6c-0.2-15.3-0.3-30.6-0.5-45.8c-0.4-0.7-0.4-1.4,0-2.1
				c0-0.5,0-1,0.1-1.5c-0.3-0.4-0.3-0.9,0-1.3c0-1.1,0-2.2,0-3.3c-0.6-1.4-1.2-1.6-1.8-0.1c0,52.6,0,75.4,0,75.5c0,0,0,0.1,0,0.2
				c0,0.2,0,0.3,0,0.3c0,0.4,2,0.9,2.1,0.7c0,0,0-0.1,0-0.1c0-0.1,0-0.1,0-0.1C428.2,377.1,428.3,371.3,428.4,357.2z"/>
			<path class="st1" d="M376.5,275.6c3.4-2.3,6.5-5.3,10.5-5.9l0-0.1c0-1.6,0.5-3.2-0.2-4.7c-18.2,11.4-36.5,22.9-54.7,34.3
				c-0.1,1.4-0.6,1.5-1.5,0.8c-0.6,0.4-1.1,1.3-2,1c0.4,1.2-0.4,1.8-0.9,2.6c-0.8,1.4-0.7,2.4,0.8,2.9c1.4-0.8,2.8-1.5,4.2-2.4
				c3.3-2,6.2-5.4,10-6.1l0,0.1c1.8-2.3,4.3-3,6.4-4.4c0.4-1,1.1-0.9,1.7-0.9c0.4-0.9,0.9-1.4,1.8-1c1.2-2.2,3.2-2.8,5-3.6
				c1.4-1.6,3.2-2.5,5-3.2C367.3,282,371.9,278.7,376.5,275.6z"/>
			<path class="st1" d="M287.5,411.3c6.8-4.1,13.7-8,20.4-12.3c1.8-1.2,4.1-1.6,5.4-4.1c9.2-5.8,18.5-11.5,27.7-17.3
				c1.8-0.6,2.9-2.8,4.9-2.8c0.7-1.2,1.7-1.7,2.8-1.9l0,0.1c0.2-0.9,0.8-0.9,1.4-1c0.3-0.8,0.8-1.1,1.4-0.9c0-0.5,0.4-0.7,0.7-0.8
				c0.5-1,1.3-1,2.1-1l-0.1,0.1c0.3-0.3,0.5-0.6,0.8-0.8c0-0.3,0-0.6,0-0.9c0,0,0,0,0,0l0,0c0.2,0,0.4-0.1,0.6-0.1
				c3.5-2,7.2-3.6,10.6-5.9c15-10.2,30.5-19.4,45.8-29.1c0.2-0.1,0.3-0.1,0.5-0.2c2.5-2.1,5.1-4.2,7.6-6.3c1.5-1.2,2.4-2.6,1.9-5
				c-11.8,7-23.3,14.6-34.8,22.1c-10.5,6.9-21.4,13.2-31.7,20.7c-0.4,0.2-0.9,0.3-1.3,0.6c-15.6,9.8-31.3,19.7-46.9,29.5
				c-6.7,4.2-13.3,8.5-20.1,12.6c-1.8,1.1-2.5,2.5-2,4.9C286.2,412,286.8,411.7,287.5,411.3z M355.3,367.3c0,0.1-0.1,0.2-0.1,0.4
				C355.2,367.5,355.2,367.4,355.3,367.3z"/>
			<path class="st1" d="M427.3,394.4c-6.2,3.4-12.3,7-18.4,10.6c-10.2,6-20.4,12.1-30.6,18.2c-1-0.2-1.8,0.5-2.6,1
				c-12.4,7.3-24.8,14.7-37.2,21.9c-17.5,10.3-35.3,20.1-52.6,30.9c-2,1.3-3,2.5-1.9,5.3c7.3-4.3,14.6-8.6,21.9-12.8
				c16.3-9.5,32.7-18.9,49-28.4c8.1-4.7,16.3-9,24-14.5c16.6-9.7,33.3-19.3,49.9-29c1.5-0.9,4.5-1.9,3.7-3.8
				C431.7,391.6,429,393.4,427.3,394.4z"/>
			<path class="st1" d="M326.4,434.2c0.3-0.3,0.6-0.6,0.9-0.9l0.2-0.1l0.2,0.1c1.7-1.9,3.9-2.8,6-3.6c0.3-0.8,0.8-0.9,1.5-0.9
				c1.1-1,2-2.3,3.5-1.8l-0.1-0.1c0.2-1.7,1.4-1.6,2.2-2.1c3.2-2,6.5-3.8,9.5-6.5c1.8,0.7-1.4,2.9,0.7,3.5c1.9-1.3,4-2.2,5.5-4
				c2.1-2.5,4.7-4,6.8-6.4c1.8-2,5.1-3.1,7.7-4.7c7.8-4.5,15-10.7,23.3-14c0,0,0,0,0,0c0.9-0.7,1.7-1.5,2.6-2.1
				c7.7-5.1,15.4-10.1,23.1-15.2c1.5-1,2.8-2,2.5-4.7c-17.4,10.9-34.8,21.6-52,32.5c-6.8,4.3-14,7.5-20.3,12.9
				c-0.2,0.1-0.5,0.2-0.7,0.2c-0.5-0.2-0.7,0.1-0.8,0.6c-8.5,5.3-17.1,10.6-25.6,15.9c-11.2,7-22.3,14-33.4,21.3
				c-1.7,1.1-4.3,1.5-4.2,5.1c5-1.8,9.1-6,13.8-8.6C308.4,445.6,317.1,439,326.4,434.2z"/>
			<path class="st1" d="M468.5,373.5c-0.8-1.4-1.7-0.9-2.7-0.3c-5.3,3.1-10.6,6.3-16,9.1c-4.3,2.2-8.5,6.2-13.8,3.7
				c-3.7-3.7-8.5-4.8-12.7-7.1c-1.2-0.7-1.8,0.6-2.2,1.4c-0.7,1.1,0.4,1.3,1,1.6c5.1,2.7,10.2,5.3,15.3,7.9c1.7,1.3,2.5,3.2,3,5.4
				c0.4-0.5,0.8-1,1.2-1.5c-0.4-2.3,1.2-2.5,2.4-3.2c7.9-4.6,15.7-9.3,23.6-13.8C468.7,375.9,469.3,375,468.5,373.5z"/>
		</g>
	</g>
	<g id="Face_left">
		<path class="st1" d="M51.4,224.3c2.4,6.3,1.6,11.9,1.8,17.4c1.2,46,0.9,68.9,0.6,128.1c-0.1,13.1-0.1,52.2-0.1,54
			c0,0.6,0,1.2,0,1.8c0.1,1.1,0.2,1.4,0,1.8c-0.3,0.5-1,0.9-1.6,0.7c-0.7-0.2-0.9-1.2-1-1.9c-0.1-0.3-0.1-0.6-0.1-1.2
			c0-0.8,0.1-1.1,0.1-1.9c0-0.7,0-1.2,0-1.5c-0.1-2.4-0.4-23.9-0.4-28.9c-0.1-7.2,0.1-9.6,0.2-21.9c0.1-19.6,0.3-39.1,0.1-58.7
			c-0.1-9.8,0.3-19.7,0-29.5c-0.2-6.9-0.5-13.8-0.4-20.6c0.1-10.7,0.5-21.4,0.1-32C50.4,228.4,51,226.8,51.4,224.3z"/>
		<path class="st1" d="M74.1,281.6c-2.5,0.3-4.1-1.9-5.6-3.8c-1-1.3-1.6-3.1,0.3-4.3l0,0c1,3.4,3.7,4.4,5.7,6.2c0,0.3,0,0.5,0,0.8
			C74.4,280.8,74.2,281.2,74.1,281.6z"/>
		<path class="st1" d="M75.8,304.9c-0.5,0-0.9,0-1.4,0c-1.8-1.4-3.6-2.9-5.4-4.3c-0.7-0.5-1.2-1.2-0.9-2.1c0.5-1.2,1.2-0.3,1.8,0
			c1.7,0.9,3,2.9,5.1,2.9c0,0.3,0.1,0.6,0.1,0.9C74.5,303.5,76,303.9,75.8,304.9z"/>
		<path class="st1" d="M75.8,296.4c-1,0.4-1.2,1.2-0.9,2.3c-2.5-1.8-5-3.5-7.5-5.3C70.8,292.4,73.2,294.9,75.8,296.4z"/>
		<path class="st1" d="M75.1,274c0,1,0,2.1,0,3.1c-2.6,0.1-3.6-4.2-6.4-3.6l0,0c0.3-1.2-0.2-3.4,1.9-2
			C72.1,272.4,73.7,273.1,75.1,274z"/>
		<path class="st1" d="M74.2,287c-0.2,0-0.4,0-0.6,0.1c-1.9-1.4-4.4-1.8-5.7-5.1c2.9-0.3,4.3,2.7,6.6,3c0,0.2,0,0.3,0,0.5
			C74.4,286.1,74.3,286.5,74.2,287z"/>
		<path class="st1" d="M71.6,311.7c0.8,0.7,1.6,1.3,1.4,2.7c-1.6-0.2-2.8-1.5-4.1-2.6c-1.4-1.2-1.4-2.7,0.6-3.2l0,0
			C69.4,310.5,70.7,310.9,71.6,311.7z"/>
		<path class="st1" d="M75,347.1c0.4,0.1,0.7,0.2,1.1,0.3c-1.1,1.6,0.5,3.7-0.6,5.3c-0.4,0-0.7,0-1.1,0l0,0c0.2-4.3-2.8-4.3-4.7-5.8
			c-0.7-0.5-2.2-0.6-1.6-2.2c0.7-1.7,1.7-0.3,2.3,0.3C71.8,346.5,73.5,346.3,75,347.1z"/>
		<path class="st1" d="M72.7,338.7c-1.8-1.5-3.4-2.8-4.9-4.1c-0.5-0.4-0.6-1.3-0.3-2c0.4-0.9,1.1-0.3,1.5,0
			C70.5,334.1,73.7,333.9,72.7,338.7z"/>
		<path class="st1" d="M73.2,326.5c-2.6,1.8-4.1,0.3-5.4-1.5c-0.4-0.6-0.3-1.8,0.3-1.8C70,323.3,71.6,324.6,73.2,326.5z"/>
		<path class="st1" d="M76,359c-0.2,0.9-0.4,1.9-0.6,2.8c-2.3-0.3-2.6-3.3-4.8-4.8C73.2,356.2,74.2,359,76,359z"/>
		<path class="st1" d="M70.8,400.6c-0.2,0-0.5-0.1-0.7-0.1c-0.7-0.3-1.7,0.1-1.9-1.3c0-0.2,0.1-0.7,0.2-0.8c0.9-0.6,1.5,0.3,2.1,0.8
			c0.3,0.2,0.3,0.7,0.5,1.1C71.1,400.3,70.8,400.6,70.8,400.6z"/>
		<g>
			<path class="st1" d="M205.2,325.1L205.2,325.1c1.3-4.4,0.9-7.6-3-9.8c-5.1-2.8-9.9-6.3-14.8-9.4c-20-12.3-40.1-24.6-60.1-36.9
				c-17.3-10.6-34.6-21.2-51.9-31.8c-1.8-1.9-4.1-2.4-6.1-3.7c0.6,4,3.8,4.1,5.7,6.2c0.1,0.2,0.1,0.5,0.1,0.7c1.1,0.1,1.5,1.4,2.3,2
				c4,2.7,7.9,5.4,11.9,8.1c5.2,3.3,10.4,6.7,15.6,10c0.2,0,0.5,0.1,0.7,0.1c-0.2-0.1-0.4-0.1-0.7-0.1c0.1,0.8,0.2,1.5,0.4,2.3
				c1.3,0.5,2.5,1.4,3.9,0.5l0,0c0.2,0.5,0.4,0.8,0.8,0.2c0.3,0.1,0.5,0.2,0.8,0.3c0.3,0.1,0.6,0.2,0.9,0.4c0.3,0,0.7,0,1,0.1
				c-0.3-0.1-0.7-0.1-1-0.1c-0.4,0.6-0.8,0.9-1.3,0.8c0.5,0.1,0.9-0.2,1.3-0.8c-0.3-0.1-0.6-0.2-0.9-0.4c-0.3,0.3-0.7,0.6-1,0.8v0
				c1.5,3.5,4.4,4.6,6.8,6.4c4,3.1,7.9,6.2,11.6,9.8c11.9,8.5,24,16.8,36.5,24.1c5.8,3.4,11.6,6.6,17.5,9.9c2,1.1,4.2,1.9,6.4,4.3
				c-3.6-0.6-6.2-2.2-8.9-3.6c-17.4-9.3-34.4-19.6-50.4-32.3c-0.6-0.5-1.1-1.1-1.6-1.7c-7.7-5.9-15.5-11.2-22.7-18.1
				c-9-5.3-17.9-10.5-26.9-15.9c-1.2-0.7-2.3-1.5-3.6-1.5c-0.7,4,2.6,3.4,3.7,5.2c2.7,1.3,5,3.2,7.1,5.8c-2.8-0.5-5.5-1-7.4-3.9
				c-0.9-0.3-1.8-0.7-2.8-1c0,1,0,2.1,0,3.1c0.1,0.2,0.2,0.4,0.2,0.6c3.7,1.4,7,3.8,10,6.9c-3.5-0.2-6.3-4.3-10-3.3
				c-0.3-0.3-0.5-0.6-0.8-0.9c-0.1,0.4-0.3,0.8-0.4,1.2c0.2,0.2,0.4,0.4,0.6,0.5c0.2,0.6,0.4,1.3,0.6,1.9c5.4,1.5,10.3,4.5,14.8,8.2
				c18.8,15.5,37.1,32,56.1,47c18.3,14.5,37,27.8,57,38c0.5,0.3,1,0.8,1.5,1.2c1.1,0.5,1.4-0.3,1.5-1.5c0-3.1,0.1-6.2,0.1-9.3
				c0-1.4-0.5-2.2-1.6-2.5c-1.7-0.8-3.4-1.6-5.1-2.4c-10.3-6.3-20.6-12.7-31.2-18.3c0,0,0,0.1,0,0.1c-0.3-0.8-0.9-0.8-1.4-1
				c-6.8-4.6-13.6-9.3-20.5-14c1.7-0.9,2.9,0.5,4.1,1.2c17.7,10.5,35.4,21.1,53.2,31.5c0.8,0.5,2.1,2.2,2.6-0.6c0-3.3,0-6.6,0-10
				c0-0.3,0-0.6,0-0.9c0-1.2-0.4-2.1-1.4-2.6C204,326,204.1,325.8,205.2,325.1z M158.9,292.9L158.9,292.9
				C158.9,292.9,158.9,292.9,158.9,292.9C158.9,292.9,158.9,292.9,158.9,292.9z M160.3,293.8c-0.1,0-0.2,0-0.2,0
				C160.1,293.8,160.2,293.8,160.3,293.8L160.3,293.8L160.3,293.8z M176.9,304.9c0.6-0.1,1.3-0.1,1.9-0.2v0
				C178.2,304.7,177.5,304.8,176.9,304.9z M184.1,308.4c0.2,0,0.3-0.1,0.5-0.2c-0.4-0.5-0.9-0.9-1.3-1.2c0.5,0.4,0.9,0.8,1.3,1.2
				l0,0C184.4,308.3,184.3,308.3,184.1,308.4z M103.2,267.9c2.8,1.4,4.9,2.8,6.3,5.6C107.5,271.8,104.2,272.6,103.2,267.9z
				 M168.1,322.6L168.1,322.6c-0.3,0-0.6-0.1-0.8-0.2C167.6,322.6,167.9,322.6,168.1,322.6z"/>
			<path class="st1" d="M204.4,357.8c-12.8-6-25-13.3-36.8-21.9c-26.2-19.3-51.8-39.6-76.4-62c-4-3.6-8.4-6-12.8-8.3l0,0
				c-1.4-0.6-2.8-1.3-4.3-1.9c-0.1,0.5-0.2,0.9-0.2,1.4c1.2,0.9,2.5,1.8,3.7,2.8c0.6,0.4,1.2,0.8,1.7,1.4c0.4,0.5,0.8,1.2,0.2,1.9
				c-0.4,0.5-0.8,0.2-1.2-0.2c-1.6-1.7-3.5-2.1-5.5-2.1c2.7,5,7.7,5.7,10.8,10.1c-2.7-1.5-5.5-2.9-8.2-4.4c-1,0.4-1.2,1.2-0.9,2.3
				c0.4,0.6,0.7,1.1,1.1,1.7c3.1,0.2,5.3,3.2,8.3,3.6c-3.4,1.7-6-2.3-9.2-1.8c-0.6,1.2,0.8,1.6,0.7,2.7c5.5,4.8,11.8,7.6,17.8,10.8
				c9.5,5.1,18.8,10.4,28,16.3c0.4,0.3,0.7,0.7,1.3,1.3c-1.7,0.6-2.9-0.7-4-1.4c-13-8.1-26.9-13.9-39.9-22.1
				c-3.5-2.2-3.5-2.1-3.7,3.1c0,0.8-0.1,1.5-0.7,1.9c0,1.8,1.6,1.4,2.1,2.4c8.8,6.4,17.7,12.7,26.5,19.1c12.3,9,25.4,15.9,38.3,23.4
				c18.4,10.6,37.4,19.9,55.6,31.2c2.7,1.7,5.6,3.1,8.3,4.7c1.5-1.8,0.4-4.1,0.8-6.1c-0.3-2.4-0.3-4.8,0-7.2
				C206.1,358.9,205.3,358.4,204.4,357.8z M123.6,312.1c0.1,0,0.2,0.2,0.2,0.3c-0.1,0.1-0.2,0.2-0.2,0.2c-0.1,0-0.2-0.2-0.2-0.3
				C123.4,312.2,123.5,312.1,123.6,312.1z M130.9,324.8c-7-3.5-14-7.4-20.6-12.2c-0.9-0.7-2.3-0.8-2.7-3.2c4,2.2,7.9,4.1,11.6,6.3
				c8.1,4.7,16.3,9.5,24.4,14.3c0.6,0.3,1.4,0.5,1.6,1.5C140.2,330.3,135.7,327.2,130.9,324.8z M146.1,332.5c-0.4,0-0.8-0.1-0.8-0.8
				c0.3,0.2,0.7,0.4,1,0.6C146.3,332.4,146.2,332.5,146.1,332.5z"/>
			<path class="st1" d="M204.9,376.1c-21.1-12.4-42.5-24-63.8-36C121.3,329.1,102,317,83.5,303c-2.7-2-6-2.8-8-6.2
				c-0.2,0-0.4-0.1-0.6-0.1c-0.3,0.6-0.6,1.2-0.9,1.8c0.2,4,2.8,5.1,5,6.7c2.6,1.9,5.2,4,7.8,6c0,0.2,0,0.4,0,0.5
				c-4.3-1.1-7.7-4.6-11.7-6.5l0,0c-0.4-0.3-0.7-0.5-1.1,0c0.2,0.2,0.4,0.4,0.6,0.7c-0.5,1.6-0.6,3.1,1,3.9c1.4,0.8,2.7,1.6,4.1,2.4
				c1.1,1.8,2.8,2.5,4.4,3.2c0.2,0.1,0.4,0.2,0.6,0.3c0-0.3,0-0.7,0-1h0v0c0.9,0.1,1.5-0.1,1.8-0.6c-0.3,0.5-1,0.7-1.8,0.6
				c0,0.3,0,0.7,0,1c5.2,3.9,10.3,8,16.3,9.9c1.8-0.8,3.3,1.1,5,0.8c-2-2.1-4.2-4-6.5-5.5c-1.4-0.9-2.8-1.7-4.3-2.3
				c1.5,0.6,2.9,1.4,4.3,2.3c2.3,1.5,4.4,3.4,6.5,5.5l0,0c0.1,1.9,1.2,1.7,2.2,1.7c9.9,6,19.7,12,29.6,17.8
				c8.7,5.2,17.5,10.2,26.3,15.3c0.7,0.4,1.2,1.3,1.8,1.9c2.5,0.2,4.6,1.1,6.2,3.8c-0.1,3.2,1.9,4.9,3.6,6
				c9.8,6.4,19.8,12.5,29.9,18.8c0-2.3,0-4.2,0-6.1c-4.8-2.7-9.7-5.4-14.1-9c5.2,0.6,9.3,4.8,14,7
				C205.6,381.2,206.5,378.5,204.9,376.1z M81.7,311.8c1.2,0.5,2,2.2,3.2,2.8C83.6,314.1,82.8,312.3,81.7,311.8z M91.7,314.8
				c0.2-0.1,0.5-0.2,0.6-0.1C92.2,314.6,91.9,314.7,91.7,314.8z M110.5,327.8c0,0,0-0.2,0.1-0.2
				C110.6,327.6,110.5,327.7,110.5,327.8z M177.4,364.1c0.3,0.2,0.6,0.5,1,0.8C178,364.5,177.7,364.3,177.4,364.1z M178.7,365.1
				c0.3,0.3,0.6,0.6,0.9,0.9C179.3,365.7,179,365.4,178.7,365.1z M187.9,371.3c0.4,0.3,0.9,0.5,1.3,0.7
				C188.8,371.9,188.3,371.6,187.9,371.3z M191.6,376.8c-0.2-1.2-1.1-2.1-1.2-3.2C190.5,374.7,191.5,375.6,191.6,376.8L191.6,376.8z
				"/>
			<path class="st1" d="M69.3,363c1.9,1.4,3.8,2.7,5.7,4.1c0.5,0.6,1,1.1,1.6,1.7c2,1,4.1,2.1,5.3,4.6c-0.3-0.1-0.7-0.1-1-0.2l0,0
				c-1.8-2.3-3.5-2.2-5.1,0.5c-0.2,0-0.4,0-0.6,0.1c0,0.2,0,0.3-0.1,0.5c0.2,0.6,0.4,1.3,0.6,1.9c0.1,0.2,0.2,0.4,0.2,0.7
				c2.2,0,3.6,2.3,5.5,3.1c0.2-1.9-0.1-4,0.8-5.7c-0.1-0.3-0.1-0.6-0.2-0.9l-0.2,0.1h0l0.2-0.1c3.6-0.1,6,2.4,8.2,5.5
				c-1.3-0.3-2.6-0.7-3.9-1c-1.3-1.3-2.5-2.8-4.2-3.6c-1,1.7-0.7,3.8-0.8,5.7c0.2,1.7,1.3,1.9,2.2,2.4c3.7,3.1,7.4,6.3,11.1,9.4
				c1.4,0.9,2.8,1.7,3.9,3.2c0.4,0.1,1.1,0.4,0.8,1c-0.5,0.9-0.9,0-1.3-0.4c-1.5-0.7-2.9-1.5-4-3c-6-4.5-12-9-18-13.5
				c-0.1,1.8,0.2,3.6-0.5,5.3c0.1,0.2,0.2,0.4,0.2,0.6c0.2,0.2,0.4,0.4,0.6,0.6c0.3,0.2,0.5,0.3,0.8,0.5
				c12.9,7.9,25.3,16.9,36.4,28.4c7.4,7.7,15.7,12.5,24.7,15.8c16.3,5.8,31.5,14.9,46.7,24.2c6.3,3.8,12.6,7.4,18.9,11.2
				c2.2,1.3,2.9,0.6,2.8-2.4c-0.1-3.4,0.1-6.9,0.1-10.3c0.2-2.3-1.8-2.2-2.5-3.5c-6.6-1.9-12.3-6.7-18.4-10.1
				c-11.6-6.3-23-13.1-34.4-19.8c-1.7-1-3.1-2.5-3.9-4.8c9.5,4.5,18.3,10.8,27.5,16.1c10.2,5.9,20.1,12.3,30.2,18.4
				c1.9-1.4,2-2-0.4-3.7c-4.8-3.4-9.7-6.6-14.7-9.6c-38-23.5-75.9-46.9-113.9-70.4c-1.8-2.5-4.7-2.2-6.7-4.3c-0.3-0.4-1-0.3-1.2,0.3
				C68.3,362,68.8,362.6,69.3,363z M112.6,392.1c8.5,5.3,17.4,9.7,25.4,16.3c-0.5,0.6-1.1,0.5-1.7,0.2c-10.3-6-20.7-11.7-30.3-19.3
				c-0.4-0.3-0.7-0.8-1-1.3C108.1,387.7,110.1,390.5,112.6,392.1z M100.3,391.8c0.6,0.4,1.4,0.4,1.5,1.5c0,0.1-0.1,0.3-0.2,0.3
				c-0.8,0.1-1.3-0.5-1.7-1.3c-0.9-0.2-1.6-0.8-2.2-1.7c-4.8-3.2-9-7.6-14.1-10.2c0,0.6,0,1.3,0,1.9c0-0.6,0-1.3,0-1.9
				c0-0.3,0-0.5,0-0.8c-0.1-0.1-0.2-0.1-0.3-0.2c0-0.1,0-0.2,0-0.3c0.1,0.1,0.2,0.3,0.3,0.4c1,0.3,1.9,0.6,2.9,0.9
				c4.1,2.8,8.2,5.6,11.8,9.4C98.9,390.6,99.6,391.2,100.3,391.8z M97.4,383.4c-0.4-0.3-0.8-0.7-1.1-1.3
				C96.6,382.6,96.9,383,97.4,383.4z M94,380.5c0.4,0.3,0.8,0.6,1.3,1C94.6,381.6,94.2,381.3,94,380.5c-1.4,0.4-2.5,0-3.1-1.7
				C92.2,378.4,93.1,379.3,94,380.5z"/>
			<path class="st1" d="M204.5,404.5c-7.4-2.7-13.5-8.6-20.6-12.1c-1-0.5-0.2-2.3-1-3.1c6.8,2.9,13,7.4,19.4,11.2
				c1.2,0.7,2.2,1.7,3.6,1.5c0.5-3-0.2-5-2.6-6.4c-5.1-3-10.1-6.5-15.1-9.6c-22-13.8-44.1-27.5-66.1-41.3
				c-15.2-9.5-30.2-19.8-45.8-28.4c-0.9-1.2-2.2-1.6-2.8,0c-0.7,1.9,1,2.2,2,2.9l0,0c-0.1,0.7,0.6,1.8-0.5,2
				c-0.5,0.1-0.9,0.3-0.8,0.9c0.1,0.5,0.5,0.9,0.8,1.3c6,3.8,12.1,7.5,18.1,11.3c0.4,0.3,1.3,0.3,0.8,1.2c-0.3,0.6-1,0.2-1.3-0.4
				c-5.9-2.4-11.4-6-16.8-9.9c-1.1,1.6,0.5,3.7-0.6,5.3c-0.2,0.3-0.3,0.5-0.5,0.8c-0.4,0.4-0.8,0.8-1.2,1.2c1.4,1.1,2.8,2.2,4.2,3.4
				c11,6.9,22.6,12.1,33,20.7c-3.5-0.4-6.4-2.8-9.4-4.6c-7.9-4.8-16-9.1-23.6-14.8c-0.7-0.1-1.4-0.2-2-0.4c-0.2,0.9-0.4,1.9-0.6,2.8
				c0.1,0.8,0.2,1.7,0.3,2.5c0.4,0.6,1.4,0.5,1.3,1.5c0,0.2-1.2,0.2-1.9,0.2c1.5,2.3,4.3,2.4,5.8,5.4c-1.6-0.7-2.9-1.2-4.2-1.7
				c-0.5,0.3-1.2,0.1-1.5,1c0.2,0.5,0.4,1,0.6,1.5c1.9,0.8,3.8,1.4,5.6,3.3c-1.4,1.1-2.5,0.1-3.3-0.4c-3-1.7-2.8,0.3-2.4,2.9
				c-0.3,2.9,0.5,4.6,2.8,5.9c12.7,7.7,25.3,15.7,38,23.5c17.6,10.9,35.3,21.7,52.9,32.4c12.2,7.5,24.5,14.9,37.1,22.5
				c0-6.4,0-12.5,0-18.5c0-1.5-0.9-1.8-1.8-2.3c-2.3-1.1-4.5-2.5-6.8-3.7c0.1-0.3,0.2-0.6,0.3-0.9c2.6,1.3,5.3,2.5,8.1,3.9
				c0.2-3.9,0.4-7.2,0.5-10.4C206.3,406.9,206.4,404.9,204.5,404.5z M80.8,333.6c-0.2-0.3-0.4-0.6-0.6-0.9c-0.2-0.3-0.4-0.6-0.6-0.9
				c0.2,0.3,0.4,0.6,0.6,0.9C80.4,333,80.6,333.3,80.8,333.6s0.4,0.5,0.7,0.7C81.2,334.2,81,333.9,80.8,333.6z M95.5,336.9
				c-0.2,0-0.4-0.2-0.6-0.4c0.2-0.1,0.4-0.3,0.5-0.3c0.2,0,0.4,0.2,0.6,0.4C95.9,336.7,95.7,337,95.5,336.9z M129.7,381.8
				c-9.7-5.6-19.4-11.2-29.1-16.7c0.1-0.3,0.2-0.7,0.4-1c10.1,4.4,19.7,10.2,29.1,16.4C130,380.9,129.8,381.3,129.7,381.8z
				 M135.9,366.1c-0.4-0.2-0.9-0.2-1.3-0.5c-0.4-0.2-0.8-0.6-1.2-1c1.4-1.2,2.1,0.2,3.1,0.8c9.6,5.3,20,8.8,28.8,16.3
				c0.4,0.3,0.6,0.8,0.7,1.7C156,377.2,145.4,373.2,135.9,366.1z M184.7,416.1c-0.3,0.5-0.8,0.1-1.1-0.5c-4.9-2-9.5-5.1-13.9-8.5
				c0.1-0.3,0.3-0.7,0.4-1c4.6,3,9.3,5.9,13.9,8.9C184.3,415.3,185.1,415.4,184.7,416.1z"/>
		</g>
		<path class="st1" d="M21,374.7c0.6,0.4,1.3,0.6,1.9,1c7.1,4.1,14.2,8.2,21.2,12.3c1.5,0.9,2.8,2.1,2.3,4.5
			c-0.9,3.7-0.3,7.4-0.2,11.1c0,1.9,0,3.7,0,5.6c-0.1,5.2-0.1,10.4-0.2,15.5c0,1.7,0.6,2.7,2,2.7c1.4-0.1,0.9-1.6,0.9-2.6
			c0-6.3-0.1-12.5-0.2-18.8c0-3.8,0.2-7.5,0-11.3c-0.1-2.8,0.6-5,2.4-6.8c0.2-1.6-1.1-2.2-1.7-3.2c-9.1-4-17.8-9.1-26.6-13.9
			c-0.7-0.4-1.8-1.6-2.4,0C20,372.1,19.5,373.7,21,374.7z"/>
		<path class="st1" d="M23.3,160.3c6.1,3.6,12.2,7,18.3,10.6c2.2,1.3,4.6,2.4,5.9,5.4c0,12.1,0,24.2,0,36.4
			c-1.4-10.4-1.5-20.8-1.1-31.3c0.1-2.1,0.5-4.8-1.7-5.8c-6.4-2.9-12.3-7.4-18.5-10.9c-0.8,2.1-0.6,4.3-0.7,6.3
			c0.9,8.7,0.6,17.4,0.1,26.2c-1.2-8.7-0.9-17.5-0.9-26.3c0-1.6-0.2-3.3,0-4.9c0.4-2.4-0.8-3.7-2.1-3.8c-2-0.2-1.2,2.1-1.2,3.3
			c-0.1,8.4-0.2,16.8-0.2,25.2c0,6.2-0.8,12.9,6.7,13c0.1,0,0.1,0.2,0.2,0.3c5.8,5.2,12.6,7.7,18.8,11.7c1.8,1.2,3.4,1.2,3.4-2.5
			c-0.1-12-0.1-24-0.2-36c1.9-5-0.4-6.9-3.6-8.6c-7.3-3.9-14.5-8-21.7-12.1c-1.6-0.9-2.9-0.8-3.5,1
			C20.6,159.2,22.3,159.7,23.3,160.3z"/>
		<path class="st1" d="M58.8,211.4c0.4,0.2,0.9,0.4,1.3,0.5c5.3,3.1,10.6,6.1,15.9,9.2c11.6,6.8,23.6,11.9,35.8,16.4
			c0.9-0.6,1.8-0.9,2.7-1c-0.9,0.1-1.8,0.4-2.7,1c0.3,0.2,0.6,0.5,0.9,0.7c19,8.4,37.4,18.6,54.8,31.5v0c0.2,0.2,0.3,0.3,0.6,0.2
			c0.4-0.1,0.8-0.4,1.1-0.4c-0.3,0-0.7,0.2-1.1,0.4c0.5,0.3,1.1,0.6,1.6,0.9h0c0,0,0,0,0,0c4.1,3.2,7.9,7.1,12.8,8.1
			c0.6,2.8,2.7,2.7,4.3,3.6c0,0.7,0.4,0.8,0.8,0.9c-0.2-0.3-0.5-0.6-0.7-0.9l0,0c0.2,0.3,0.5,0.6,0.7,0.9
			c5.2,5.4,11.8,7.5,17.1,12.6c1.6-2.4-0.2-5.7,1.3-8.1c-4.2-3-8.9-5-13.7-9.4c5.8,1,9.4,5.1,13.7,7.3c-0.1-2.3,0.6-4.8-0.5-7
			c1-1,0.5-2.3,0.5-3.6c0-0.4,0-0.7-0.1-1.1c0.1-2.1-0.4-4.5,0.3-6.2c1.4-3.4-0.2-4.2-2-5.2c-23.5-13.3-46.4-28.4-70.1-41.3
			c-6.3-3.4-12.4-7.7-19-10.4c-0.1-0.9-0.8-0.9-1.3-1.2c-13.7-8-27.3-16-41-24c-5.3-3.1-10.5-6.1-16-9.4c0,5.4-1.2,10.5,3.5,12.9
			c6.5,2.4,12.3,6.7,18.4,10.1c14.3,8.4,29.1,15.2,43.7,22.7c1.7,0.9,4.1,1.1,4.6,4.2v0c-3.8-0.6-6.8-3.9-10.5-4.4
			c-6.2-3.1-12.3-6.4-18.5-9.4c-10-4.8-19.6-10.6-29.3-16.1c-3.2-1.8-6.5-3.1-9.3-5.8c-0.8-0.4-1.7-0.7-2.7-1.2c0,1.4,0,2.6,0,3.7
			c0,2.4,0.1,4.9,0.1,7.3c0,1.1-0.6,2.7,1,2.8c-0.5,0.6,2.9,3.3-0.7,2.3c-0.8-0.2-0.5,1.1-0.6,1.6C56.4,209.4,57.6,210.4,58.8,211.4
			z M108.8,210.1c1.6,0.7,3.4,1.2,5.2,1.2C112.2,211.2,110.5,210.8,108.8,210.1z M115.1,211.3c3.1,4.2,7.1,6.2,11,8.8
			C122.2,217.5,118.1,215.4,115.1,211.3z M145.7,237.4c-0.1-0.1-0.2-0.2-0.3-0.4C145.5,237.1,145.6,237.3,145.7,237.4L145.7,237.4
			c0,0.4,0,0.9,0.1,1.2C145.7,238.2,145.7,237.8,145.7,237.4z M155.2,257.4c0.4,0.8,1,1.8,1.7,2.6
			C156.2,259.2,155.7,258.3,155.2,257.4z M163.4,261.5c-0.1,0.6-0.1,1.1-0.1,1.5C163.2,262.5,163.2,262.1,163.4,261.5z M164.6,264.7
			c0.5,0.3,1.1,0.5,1.6,0.9C165.7,265.2,165.1,265,164.6,264.7z M166.1,251c1.4,0.8,2.8,1.8,4.4,1.9c0.2,0,0.3,0,0.5,0
			c-0.2,0-0.3,0-0.5,0C168.9,252.8,167.5,251.8,166.1,251z M169.8,270.8c4.6-2.3,7.3,2,10.3,4.9
			C177.1,272.7,174.5,268.5,169.8,270.8z M172,252.7c0.1,0.7,0.5,0.9,0.9,0.9C172.5,253.6,172.1,253.4,172,252.7z M173.4,253.6
			c0,0.2,0,0.3-0.1,0.5C173.4,253.9,173.4,253.8,173.4,253.6c-0.1,0-0.2,0-0.2,0C173.3,253.6,173.3,253.6,173.4,253.6L173.4,253.6
			L173.4,253.6z M182.6,278.9L182.6,278.9c0.1,0,0.2,0,0.4,0C182.9,278.9,182.8,278.9,182.6,278.9z M183.7,279
			c1.1,0.2,2,0.6,2.6,1.7C185.8,279.6,184.8,279.2,183.7,279z M196.1,274.7c-3.7-2.5-7.4-5-11.1-7.6c-0.8-1.3-2.7-1.3-3.1-4.2
			c6,4.3,11.5,8.3,17.1,12.3C197.8,277.1,197,275.3,196.1,274.7z M191.7,258.5c-0.9-0.6-1.8-1.1-2.7-1.6
			C189.9,257.4,190.8,258,191.7,258.5z M180.8,252.9c-1.1-0.6-2.1-1.2-3.1-1.9C178.7,251.7,179.8,252.4,180.8,252.9z M135.7,228.3
			L135.7,228.3c7.8,3.5,15.1,8.7,22.6,12.9l0,0c0.8,0.6,1.5,1.4,2.3,1.9c10.2,6.1,20.3,12.1,29.8,19.9c4.1,3.4,8.6,6.2,13,9.2
			c0.7,0.5,1.4,0.9,1.6,2c-0.1,0.3-0.2,0.6-0.4,0.9c-9.7-5.5-18.2-13.9-27.7-19.8c-1.2-0.7-2.4-1.3-3.5-2c0,0,0,0,0,0l0,0
			c0,0,0,0.1,0,0.1c-0.3-0.8-0.8-0.9-1.4-0.9c0,0,0,0,0,0c-4.6-3.9-9.8-6.3-14.8-9.2c-3.8-2.2-7.2-5.4-11.5-6.1
			c0.1-0.8-0.3-0.8-0.8-0.9c0,0,0,0,0,0c-1.3-1.2-2.7-2.1-4.3-2.6c-0.2-0.1-0.4-0.1-0.6-0.1c-0.3-0.3-0.6-0.6-0.9-0.9
			c-1.4-1.2-3-2.2-4.2-3.7C133.8,227.5,135.5,228.6,135.7,228.3z M126,242.7c-0.4-0.4-0.8-0.8-1.2-1.4
			C125.2,241.8,125.6,242.3,126,242.7z M124.3,240.4c0-0.1-0.1-0.2-0.2-0.3C124.2,240.2,124.3,240.3,124.3,240.4z M123.4,227.9
			c-0.9-0.7-1.9-1.2-2.8-1.7C121.5,226.7,122.5,227.3,123.4,227.9z M119.6,225.7c-0.7-0.4-1.4-0.9-2-1.4
			C118.2,224.8,118.9,225.2,119.6,225.7z M100.1,224.4c-0.1,0.3-0.2,0.5-0.3,0.6C99.9,224.9,100,224.7,100.1,224.4
			c0.2-0.5,0.2-0.8,0.1-1.1C100.3,223.6,100.3,223.9,100.1,224.4z M89.4,214.4c0.5,0.2,1,0.3,1.5,0.5c0,0,0.2,0.2,0.2,0.2l0.2,0
			c0-0.3,0-0.4-0.1-0.5c0.1,0.1,0.1,0.2,0.1,0.5c1.7,1.2,3.5,2.4,5.2,3.7c2-2,3.8-1.7,5.6-0.8c-1.8-0.9-3.6-1.2-5.6,0.8
			c0.6,1.2,1.9,1.7,2.1,3.3c-1.4,0.5-2.5-0.8-3.6-1.4c-3.4-2-6.8-4-10.5-4.9c-1.3-2.9-4.2-2.9-6.3-5.4c3.3,0.6,5.8,2.6,8.4,3.9
			C87.4,214.6,88.4,216.7,89.4,214.4c-5.4-5.1-11.2-9.4-17.2-13.2C78.2,205.1,84,209.3,89.4,214.4z"/>
		<path class="st1" d="M45.1,425.7c0-10.2,0-19.9,0-29.6c0.7-3.2-0.6-5.1-2.9-6.3c-2.3-1.2-4.6-2.4-6.9-3.7
			c-0.2-0.7-0.8-0.7-1.3-0.7c-1.2-0.8-2.2-1.8-3.7-1.7c0,0,0,0,0,0c0,0,0,0,0,0c-1.8-1.3-3.6-2.6-5.7-4.2c0,10.7,0,20.9,0,31.3
			c-1.2-0.5-1.3-1.4-1.3-2.4c0-8.8-0.4-17.5,0.1-26.3c0.2-3.3-1-4.2-3.2-5.7c0,10.6,0,20.8,0,31c0,4.3,1.8,6.4,6,7
			c0,1.4,0.9,1.4,1.8,1.6C33.5,419.6,39.2,422.7,45.1,425.7z M41.2,407.9c-0.1-1.1-0.2-2-0.3-2.9C40.9,405.9,41.1,406.9,41.2,407.9z
			 M33.5,385.4c-1.2,0.1-2.7,1.3-3.1-1.1C30.7,386.7,32.3,385.5,33.5,385.4z"/>
		<path class="st1" d="M212.1,322c0-0.7-0.1-1.5-0.1-2.2c0-1.3-0.6-2.1-1.5-2.1c-1.4-0.1-0.8,1.4-0.9,2.3c-0.1,0.6,0,1.2,0,1.8
			c0.1,4,0,151.9-0.1,153.9c0,0.5,0,0.7,0,1.2c0,0.5,0,0.7,0.1,0.9c0,0.1,0.4,1.3,1.2,1.4c0.7,0.1,1.2-0.6,1.4-1.1
			c0.1-0.2,0.1-0.3,0.1-1c0-1,0-1.4,0-1.5c0-0.2,0-5.9,0-17.3c0.1-36.1-0.5-72.3,0.1-108.4C212.5,340.6,212.2,331.3,212.1,322z"/>
		<path class="st1" d="M47.4,377.5c0.1-0.7,0-1.2,0-2c0-0.2,0,0,0-1.6c0-1.1,0-1.8,0-1.8c0-48.2,0-96.3,0-144.5
			c0-1.6,0.5-3.6-0.9-4.5c-2.5-1.6-4.7-4-7.5-4.7c0,0,0,0,0,0c-0.2-0.2-0.4-0.4-0.5-0.7c0.1,0.3,0,1,0.5,0.7
			c-0.8,7.9-0.4,15.9-0.8,24.9c-3.3-9.4-0.5-18.2-1.4-26.7c-2.1-0.9-3.9-2.9-6.3-2.9c0.2-0.3,0.1-0.5-0.2-0.5
			c-0.2,0-0.3,0.3-0.5,0.5c0,0,0.3,0.1,0.3,0.1l0.3,0c0.2,23.9,0.3,47.9,0.4,71.8c0,1.8,1.1,5-1.1,5.1c-1.3,0.1-0.7-3.3-0.7-5.1
			c-0.2-22-0.4-44-0.5-66c0-1,0.2-2.1,0.3-3.1c1-4.6-1.2-6.1-4.2-6.9c-2.3-0.6-1.4,1.6-1.4,2.8c0,29.9,0.1,59.8,0.2,89.6
			c-0.1,0.4-0.1,0.9-0.1,1.3c0,25.1-0.4,48.4-0.1,57.7c0,0,0,0.2,0,0.5c0.1,1.7,0.1,2.9,0.1,2.9c0.1,3,9.2,7.7,9.2,7.7
			c2.4,1.2,14.2,7.3,15,6C47.4,378.2,47.4,378,47.4,377.5z M27.7,366C27.7,366,27.7,366.1,27.7,366c0-0.1,0-1.1,0-2.2
			c0-1.7,0.1-26.7,0.1-60.9c0.3,0,0.7,0,1,0.1c0.1,12.6,0.3,25.2,0.3,37.8c0,0,0,13.5-0.1,24.6c0,1,0,2.1,0,2.2c0,0,0,0,0,0
			C28.9,367.6,27.7,366.9,27.7,366z M36.9,369.3c-0.5-1.5-0.7-3.1-0.8-4.7C36.2,366.2,36.4,367.8,36.9,369.3L36.9,369.3z
			 M37.4,357.1c-0.4,0-0.9,0.1-1.3,0.1c0-29.5,0-59.1,0-88.6c0.4,0,0.9,0,1.3,0C37.6,298.1,37.8,327.6,37.4,357.1z"/>
		<path class="st1" d="M205.5,474.8c-0.5-1.1-1.5-1.3-2.3-1.8c-13.9-8.1-27.9-16.1-41.9-24.2c-3.1-1.9-6.3-3.8-9.4-5.6
			c-1.3-0.6-2.6-1.2-3.9-1.9c-28.9-16.3-57.4-33.7-86.8-48.8c-1.7-0.9-4.2-2.4-5-0.4c-1.1,2.6,1.9,3.3,3.4,4.1
			c31,16.8,61.3,35.2,92.2,52.3c17.3,9.6,34.4,19.5,51.6,29.3c0.7,0.4,1.5,1.5,2.2,0.5C206.3,477.2,206,476,205.5,474.8z"/>
		<path class="st1" d="M59.5,405.1c8.7,4.8,17.4,9.7,26.2,14.4c5.1,2.7,10.7,4.5,15.6,7.7c10.3,6.8,21,12.3,31.4,18.8
			c6.2,3.9,12.8,7,19.2,10.5h0c0.5,0.6,1,1.3,1.6,1.6c10.4,6.3,21,12.5,31.3,19c6.2,3.9,12.7,7.4,18.5,12.1c0.6,0.3,1.2,1.4,1.8,0.4
			c1.2-2.1-0.5-7.8-2.6-8.9c-5.7-2.9-11.2-6.1-16.7-9.3c-6.2-3.6-12.1-7.5-18.7-10.2c-0.3-0.2-0.5-0.6-0.8-0.7
			c-34.2-19.5-68.4-39.1-102.6-58.6c-2.7-1.5-5.3-3-8.3-3.9C55.1,402,57.2,403.7,59.5,405.1z M165.1,462.4c0.5-0.1,1.1-0.4,1.6-0.9
			C166.2,462,165.6,462.3,165.1,462.4c-0.2,0-0.4,0.1-0.6,0C164.7,462.4,164.9,462.4,165.1,462.4z"/>
		<path class="st1" d="M278.5,481.7c-0.9,0.4-1.7,0.8-2.6,1.3c-8.7,5.1-17.5,10.2-26.1,15.5c-2.7,1.7-4.8,1.8-7.6,0.1
			c-10-5.9-20.1-11.6-30.2-17.2c-3.4-1.9-3.7-1.5-3.6,2.9c0,11.1-0.1,22.2,0,33.3c0,2.5,0.7,4.7,3,6c10.1,5.6,20.2,11.2,30.3,16.9
			c2.6,1.5,3.4,0.6,3.3-2.4c-0.1-9.3-0.2-18.6-0.3-27.9c0-1,0.2-2.2-1-2.7c-7.6-3-14.2-8.5-21.7-11.6c-2.8-1.6-5.5-3.3-8.4-5
			c0.9,9.7,0.3,18.9,0.5,28.1c-0.8,1.4-1.6,1.9-1.5-0.4c0.2-8.8-0.8-17.6-0.1-26.5c0.2-1.8,0.2-3.5-1.2-4.7c1-0.9,1.7-0.1,2.6,0.3
			c8.7,4.5,17.2,9.5,25.8,14.4c1.9,1.1,3.7,3.9,6.2,2.4c1.7-1.1,3.5-1,5.3-2c9.5-5.8,18.8-12,28.9-16.4c2-0.9,1.5-2.9,1.3-4.1
			C280.8,480.1,279.4,481.3,278.5,481.7z M236.7,507.9c0.3,0,0.6,0,0.9,0c0,9,0,18,0,27C236.4,525.9,236.6,516.9,236.7,507.9z
			 M214.5,517.5c-0.1,0.4-0.2,0.7-0.4,1.1C214.3,518.2,214.5,517.9,214.5,517.5z M208.5,484.9c0.1,0.3,0.4,0.6,0.6,0.8
			C208.9,485.5,208.7,485.3,208.5,484.9z"/>
		<path class="st1" d="M245.3,331c0-14.1,0-27.7,0-41.3c-3-1.2-6-2.1-8.9-3.5c2.9,1.4,5.9,2.3,8.9,3.5c1.5-2.5,1.7-4.2-1.4-4.9
			c-1.8-0.4-3.4-1.8-5.1-2.8c-7.7-4.6-15.3-9.2-23-13.7c-4.7-2.7-6.1-1.6-6.2,5c-0.1,10.8,0,21.5-0.1,32.3c0,3,0.8,4.8,3,5.7
			C223.2,318.5,234.2,325,245.3,331z M212.5,276.1c0.5,0,1-0.1,1.5-0.1l0,0c0.3,0.9,0.7,1.8,0.7,2.9c-0.1,9.9-0.1,19.8-0.1,29.6
			c-1.9-0.6-1.6-2.6-1.7-4.3C212.3,294.9,212.7,285.5,212.5,276.1z"/>
		<path class="st1" d="M205.4,501.8c0.1-1.4-0.8-1.8-1.5-2.6c-9.4-6.8-19.8-11.6-29.4-18c-5.7-3.8-11.7-7.2-17.5-10.8
			c-0.8-0.5-1.6-1.1-2.3-3c17.1,10.1,34.3,18.8,50,30.7c1.3-3.5,0.8-6.2-2.4-8c-17.6-10.7-35.1-21.4-52.7-31.9
			c-9-5.4-18-10.5-27-15.8h0c-0.4-0.1-0.9-0.2-1.3-0.2c-3-2.7-6.6-3.9-10-5.8c0,0,0,0,0,0c0,0,0,0,0,0c-0.5-0.3-1-0.6-1.4-0.8
			c-0.3-0.7-0.9-0.7-1.5-0.9c0,0,0,0,0,0c0,0,0,0,0,0c-0.5-0.3-0.9-0.5-1.4-0.8c-0.6-0.7-1.3-0.9-2.1-0.8c0-0.6-0.4-0.7-0.8-0.8l0,0
			c0,0,0,0,0,0c-0.5-0.3-1-0.5-1.5-0.8l-0.1-0.1l-0.1,0.1c-0.4-0.2-0.7-0.5-1.1-0.7l-0.2-0.1l-0.3,0c-0.5,0.2-1,0.2-1.5,0.2
			c0.5,0,1-0.1,1.5-0.2c-1.1-0.7-2.2-1.6-3.3-2.2c-9.9-5.3-19.7-10.6-29.6-15.9c-2.8-2.6-6.4-3.4-9.3-5.7c-0.9-0.4-1.7-1.4-2.8-1.2
			c-1.2,4.6,0.7,6.9,4.2,8.6c8.3,4,16,9.3,23.2,15.5c-3.6-1.9-7.1-3.8-10.7-5.8c-0.4-0.7-1-1-1.8-0.9c-0.6-1.2-1.6-1.8-2.8-1.7
			c0,0,0,0,0,0c0,0,0,0,0,0c-1.5-2-3.5-2.8-5.7-3.3l0,0c0,0,0,0.1,0,0.1c-0.1-1-1-0.7-1.5-1.2c-1.5-1.3-2.9-2.7-4.9-2.9
			c0,1.8,0,3.4,0,5c-0.5,2.5,0.4,4.2,2.3,5.5c0.8,0.5,2.5,0.5,2.1,2.5c0.9-0.8,1.8,0.5,2.7,0.2c-1-1.9-2.4-3.3-3.8-4.7
			c1.4,1.4,2.9,2.8,3.8,4.7c22.5,13.2,45.2,25.8,66.8,41c-5.5-3.2-10.9-6.5-16.4-9.7c-17.2-10-34.5-19.9-51.8-29.9
			c-0.6-0.3-1.4-0.4-1.5-1.4c-1.6,0.6-2.6-1.7-4.1-1.3c-0.9,3.3,0,5.4,2.8,6.9c5.1,2.6,9.9,5.7,14.9,8.6
			c16.3,9.4,32.6,18.8,48.9,28.3c18.3,10.6,36.5,21.4,54.8,32.1c9,5.3,18,10.5,27.3,16C205.6,512.2,205.1,506.9,205.4,501.8z
			 M68,421.6c0.2,1.6,1,1.7,1.9,1.7C69,423.4,68.2,423.2,68,421.6z M70.9,423.3c0.4,0.9,1.1,0.9,1.8,0.8
			C71.9,424.2,71.2,424.2,70.9,423.3z M72.7,417.9c-0.3-0.5-0.7-0.8-1.1-1.1C72,417.1,72.3,417.4,72.7,417.9c0.3,0.5,0.6,0.8,1,1.2
			C73.3,418.8,73,418.4,72.7,417.9z M82.5,423.6c2.4,1.2,4.8,2.4,7.2,3.5C87.3,426,84.9,424.8,82.5,423.6z M105,433.2
			c-0.2-0.3-0.5-0.5-0.7-0.8C104.6,432.7,104.8,432.9,105,433.2L105,433.2z M107.2,434c0.2,0.7,0.7,0.8,1.2,0.8
			C107.8,434.8,107.4,434.7,107.2,434z M108.6,434.9c-0.1,0-0.1,0-0.2,0C108.4,434.9,108.5,434.9,108.6,434.9L108.6,434.9z
			 M110,435.7c-0.1,0-0.3,0-0.4,0C109.7,435.7,109.9,435.7,110,435.7L110,435.7c0.2,0.8,0.9,0.8,1.5,0.8v0
			C110.9,436.5,110.2,436.5,110,435.7z M111.9,437.2c1.9,2.7,6.3,5.3,9,5.1C118.2,442.5,113.7,439.9,111.9,437.2z M171.6,486.3
			c-7.8-2.4-14.9-6.6-21.9-11.1C156.8,479.2,165.2,479.7,171.6,486.3z M200.7,509.4c-11.4-6.4-23.2-11.8-34.1-19.3
			c0.2-0.4,0.3-0.8,0.5-1.2c11.4,6.4,22.9,12.9,34.3,19.3C201.2,508.6,201,509,200.7,509.4z"/>
		<path class="st1" d="M56.4,214.4c0,2,0.2,3.6,2.1,4.6c2.8,1.4,5.4,3.6,8.2,5.2c35.8,21.4,71.6,42.8,107.4,64.1
			c9,5.4,18,10.5,27,15.8c0,0,0,0,0,0c1.4,1.4,3,1.9,4.8,2.4c-0.1-2.4,0.7-4.8-0.6-6.9c-0.6-0.2-0.7-0.8-0.8-1.5
			c0,0-0.1-0.1-0.1-0.1c-16.2-10.4-32-21.9-47.7-33.4c-1-0.7-2.1-1.3-3.2-1.9h0c-8.7-5.9-17.8-10.3-26.8-15.2
			c-5.4-2.9-10.8-5.9-16.6-7.4l0,0h0c-6.4-3.8-13.3-6-19.9-9h0c-8.4-4.8-16.9-9.6-25.3-14.4c-2-1.2-4-2.5-6-3.7
			C57.3,211.3,56.3,211.4,56.4,214.4z M201.2,304c0-1.1,0.1-2.1-0.2-3.2C201.4,301.9,203.7,302.8,201.2,304z M199.3,300.3
			c-1.6-1.6-4.7,1-5.2-3.4C197.1,297.3,197.3,297.4,199.3,300.3z M193.3,295.6c0.5,0.1,0.7,0.6,0.7,1.2c-0.4,0-0.9,0-1.1-0.7
			C192.9,296,193.2,295.6,193.3,295.6z M150.4,262.4c-0.5-0.2-1.1-0.4-1.6-0.7C149.3,261.9,149.9,262.2,150.4,262.4z M93.9,235.5
			c-1.6-0.8-3.1-1.7-4.7-2.7C90.7,233.8,92.3,234.7,93.9,235.5z"/>
		<path class="st1" d="M157.1,436.8c0.1,0,0.1,0.1,0.2,0.2c-0.1,0.1-0.2,0.1-0.3,0.2c-0.1,0-0.2-0.1-0.3-0.1
			C156.9,437,157,436.8,157.1,436.8z M89,402.7c0.1,0.2,0.2,0.4,0.2,0.6C89.2,403.1,89.1,402.9,89,402.7z M89.5,404.4
			c0.1,0,0.2,0,0.2,0C89.7,404.4,89.6,404.4,89.5,404.4z M91,405.2c0.5-0.1,1,0,1.2,0.9C92,405.3,91.5,405.2,91,405.2z M92.7,406.3
			c0.1,0.1,0.2,0.3,0.2,0.6C92.9,406.6,92.8,406.4,92.7,406.3z M93.3,406.9c0.7-0.1,1.4-0.1,1.7,0.9
			C94.6,406.8,93.9,406.8,93.3,406.9z M97.1,409.2c-0.2-0.5-0.5-0.6-0.9-0.6C96.6,408.5,96.9,408.7,97.1,409.2z M96,403.2
			c-3.1,0.6-4.9-2.7-7.4-1.6c-3.6-2.4-7.1-4.8-10.7-7.2c-1.5,0.5-2.7,0.4-3.8-0.2c1.1,0.5,2.3,0.7,3.8,0.2c-1-2.6-3.6-2.9-5.1-4.7
			c-0.3-0.2-0.6-0.3-0.2-0.7c0,0,0.2,0.3,0.4,0.5c2.6,0.3,4.7,1.9,6.8,3.3C85.1,396.1,90.3,399.5,96,403.2z"/>
		<path class="st1" d="M104.9,401.8c0.8,0.5,1.8,0.7,2.3,1.7c11.4,6.3,22.8,12.5,34.2,18.8c8.7,4.8,17.5,9.6,26.2,14.4
			c0.2,0.3,0.5,0.6,0.7,0.8c12.3,7.2,25.1,13.2,37.2,21c0.7-2.1-0.1-3-1.4-3.7c-3.3-1.8-6.5-3.7-9.8-5.6
			c-8.3-4.6-16.4-9.5-24.9-13.6c-25.7-15.3-51.9-29.4-77.9-44c-0.3,0.4-0.5,0.9-0.8,1.3C95,396.8,100.2,398.7,104.9,401.8z"/>
		<path class="st1" d="M246.5,490.4C246.5,490.4,246.5,490.4,246.5,490.4c0-0.2,0-1.3,0-1.5c0,0,0-0.9,0-1.8c0-1-0.1-21-0.2-68.7
			c0.3-3.1,0.5-6.2-0.1-9.3c0,0,0,0,0,0c0-1.6,0-3.2,0-4.8c0.4-1.7,0.4-3.4,0-5.1c0-0.7,0-1.4,0-2.1c0.1-0.1,0.2-0.2,0.2-0.3
			c0-0.3-0.1-0.5-0.1-0.8v0c0.1-13.8,0.2-27.6,0.3-41.4h0c0-4.3,0.1-8.6,0.2-12.9c0-1.8-0.3-3.1-1.8-3.7c-2-0.8-3.7-2.5-5.9-2.5
			c-1.1,1.1-0.5,2.5-0.4,3.8c0,10.9,0,21.9,0,32.8c-0.5,0-1.1,0-1.6,0c0-12.8,0-25.5,0-38.3c-3.2-2.1-3.2-2.1-4,0
			c0.7,7.6,0.3,15.3,0.2,22.9c-0.2,30.1-0.6,60.3-0.9,90.4v0c-0.3-0.1-0.6-0.1-0.9-0.2c0.6-36.4,0.2-72.7,0.2-109.1
			c0-0.4,0.1-0.9,0.1-1.3c0.8-5.1-1.2-7.6-4.9-8.8c-1.1-0.4-2.1-1.2-3.2-1.8c0.1,0.3,0,0.5-0.3,0.5c0.5,0.9,0.2,1.8,0.1,2.8
			c0.6,11,0.4,22-0.5,32.9c-0.9-10.9-1.4-21.8-0.6-32.8c0.5-3.1-0.6-4.9-2.8-6c-1.6-0.8-3.2-1.8-4.7-2.9c-1.8-1.3-1.7,0.2-1.7,1.7
			c0,23.6,0.1,47.1,0.1,70.7c0,31.2,0.4,76.2,0.1,80.5c0,0.1,0,0.5,0,0.9c0.2,3.3,3.1,5.8,7,8.4c3.4,2.3,6.6,4.1,12.3,6.9
			c2.6,1.3,11.1,5.4,12.6,3.8C246.5,491.9,246.5,490.4,246.5,490.4z M220,433.2c-0.2,0-0.5,0-0.7,0c0-16.8,0-33.6,0-50.4
			c0.2,0,0.5,0,0.7,0C220,399.6,220,416.4,220,433.2z M220.8,489.3c0.2,0,0.4,0,0.5,0 M224,397.3c0.2,0,0.5,0,0.7,0
			c0,27.1,0,54.3,0,81.4c0,0.4,0,0.7,0,1.1c0,0.2,0.1,0.3,0,0.4c-0.1,0.2-0.6,0.1-0.7-0.1c-0.1-0.1,0-0.3,0-0.8c0,0,0-0.5,0-0.5
			C224,478.6,224,422.1,224,397.3z M231.4,470.8c-0.1-3.4-0.2-6.9-0.3-10.3C231.2,463.9,231.3,467.4,231.4,470.8L231.4,470.8z
			 M231.4,470.8c0-4.7,0.6-9.3,0.9-13.9C232,461.5,231.4,466.1,231.4,470.8z M245.9,401.1c0,0.4,0,0.8,0,1.3c0,0.4,0.1,0.8,0.1,1.3
			c-0.1-0.4-0.1-0.8-0.1-1.3S245.9,401.6,245.9,401.1z M241.7,400.5c-0.8-0.2-2.1,0.5-2-1.5c0.1-1.5,1.2-1.2,1.9-1.2
			c0.9,0,2.2-0.3,2.1,1.5C243.6,400.8,242.4,400.2,241.7,400.5z M243.1,405.9c0.1,1.7-0.6,2-1.5,1.9c-1.1,0-2-0.2-2-2.2
			c0-1.5,0.3-2,1.6-1.8C242.4,404,243.1,404.5,243.1,405.9z M243.7,354.4c-0.5,0.1-0.9,0-1.3-0.1
			C242.7,354.4,243.2,354.5,243.7,354.4z M239.6,385.4c0.1-1.3,0.7-1.9,1.6-1.7c2.4,0.5,1.8,2.9,1.9,5.4
			C241.2,388.6,239.3,388.6,239.6,385.4z M240.3,391.4c1.1,0.2,2.6-0.7,3.2,1c0,2.2-0.9,2.5-2.1,2.6c-1.5,0.2-2.2-0.6-2.4-2.3
			C238.8,391.3,239.6,391.3,240.3,391.4z M238.8,489.9c0-0.5,0-1,0-1s0-0.5,0-0.9c0-6.6,0.1-13.5,0.1-13.5c0.1-9.1,0-23-0.1-52.6
			c0-1.6,0-3.3,0-5c1.9,0.7,1.6,2.4,1.6,3.8c0,5.9,0.2,66.8,0.2,67.2c0,0,0,0.4,0,1c0,0.6,0,1,0,1.1 M242.1,414.3
			c-1.3-0.2-1.9-0.9-1.9-2.4c0-1.3,0.5-1.5,1.3-1.5c1-0.1,1.6,0.3,1.6,1.7C243.1,413.2,243,414.2,242.1,414.3z"/>
	</g>
</g>
<g id="Big_bix">
</g>
<g id="Hexagone">
	<path class="st0" d="M245.5,0L0,141.7v283.5l245.5,141.7L491,425.2V141.7L245.5,0z M474.2,415.5l-228.7,132l-228.7-132V151.4
		l228.7-132l228.7,132V415.5z"/>
</g>
<g id="Text">
	<g>
		<path class="st2" d="M247.3,337.1c-1.9,0-3.2-1-3.5-1.2c-59.6-34.7-119.1-69.4-178.7-104.1c-1.5-1.2-3.6-1.1-4.8-0.1
			c-1.4,1.2-1.2,3.2-1.1,3.3c0,49,0,97.9-0.1,146.9c-0.1,0.5-0.3,2.5,0.9,4.4c0.9,1.3,2,1.9,2.5,2.2c58.5,33.4,117,66.8,175.5,100.2
			c0.9,0.7,4,2.9,8.4,2.6c3.2-0.2,5.5-1.6,6.5-2.2c57.5-33.1,114.9-66.3,172.4-99.4c1.2-0.7,3.7-2.4,5.5-5.8
			c1.9-3.6,1.8-6.9,1.7-8.3c0.2-47.7,0.4-95.3,0.6-143c-0.1-1-0.5-1.5-0.7-1.8c-1-1.2-3.2-1.5-5.4-0.5
			c-58.9,35.3-117.8,70.5-176.7,105.8C250,336.4,248.9,337.1,247.3,337.1z"/>
		<path class="st0" d="M245.7,485.8c-3,0-6-0.7-8.7-2C153.5,436,75.5,391.3,69.7,388.5c-3-1.4-5.2-3.4-6.5-5.8
			c-1.5-2.8-1.5-5.6-1.5-6.5c0-4.1,0-32.6-0.2-75.6l-0.2-59c0-0.5,0.3-2.9,2.5-4.2c1.6-1,3.6-1,5.3-0.1l175.7,103.4
			c0.6,0.3,1.8,0.8,3.3,0.7l0,0c1.1-0.1,2-0.5,2.5-0.8L422.7,237c1.6-0.8,2.9-1,4.1-0.6c2.6,0.9,3.2,4.3,3.5,5.6
			c1.2,6.5-0.1,94.2-0.7,131.7c0.2,2.2,0.2,6.3-2.5,9.9c-0.8,1.1-1.8,2.1-3,2.8l-169.3,97.3c-2.5,1.2-5.2,1.9-7.9,2.1
			C246.5,485.8,246.1,485.8,245.7,485.8z M66.5,239.1c-0.5,0-1,0.1-1.4,0.4c-1.2,0.7-1.3,2.1-1.3,2.2l0.2,58.9
			c0.1,43.1,0.2,71.5,0.2,75.6c0,0.9,0,3.1,1.2,5.3c1.1,2,2.8,3.5,5.3,4.7c5.6,2.7,71,40.1,167.5,95.4c1.8,0.8,4.8,1.9,8.5,1.7
			c2.4-0.1,4.7-0.7,6.9-1.8l169.2-97.2c0.9-0.6,1.7-1.4,2.3-2.2c2.2-3,2.2-6.4,2-8.2l0-0.1l0-0.1c1.3-77.8,1.6-126.9,0.7-131.2
			c-0.4-2.2-1-3.4-1.9-3.7c-0.6-0.2-1.5,0.1-2,0.4L251.8,342.6c-1.1,0.7-2.3,1.1-3.6,1.2l0,0c-2.1,0.2-3.7-0.4-4.7-1L67.8,239.4
			C67.4,239.2,67,239.1,66.5,239.1z"/>
		<ellipse class="st0" cx="423.9" cy="244.5" rx="1.4" ry="1.7"/>
		<ellipse class="st0" cx="69.4" cy="379.7" rx="1.2" ry="1.8"/>
		<ellipse class="st0" cx="422.9" cy="377" rx="1.4" ry="1.7"/>
		<ellipse class="st0" cx="67.8" cy="243.7" rx="1.4" ry="1.7"/>
		<g>
			<text transform="matrix(0.7653 0.4253 -8.299993e-004 1 75.8847 334.402)" class="st0 st3 st4">rjdwor</text>
			<text transform="matrix(0.677 -0.3818 4.070008e-003 1 253.2678 423.5946)" class="st0 st3 st5">kspace</text>
		</g>
	</g>
	<text transform="matrix(0.866 -0.5 0.5 0.866 251.8727 475.0268)" class="st0 st6 st7">github.com/InseeFrLab/rjdworkspace</text>
</g>
</svg>
